<svg height="479pt" viewBox="0 -71 479.99829 479" width="479pt" xmlns="http://www.w3.org/2000/svg"><path d="m456 32.5h-80v-8c0-13.253906-10.746094-24-24-24-13.257812 0-24 10.746094-24 24v8h-17.472656c-3.339844-9.585938-12.378906-16.007812-22.527344-16.007812-10.152344 0-19.191406 6.421874-22.53125 16.007812h-50.941406c-3.339844-9.585938-12.378906-16.007812-22.527344-16.007812-10.152344 0-19.191406 6.421874-22.53125 16.007812h-161.46875c-3.238281 0-6.152344 1.949219-7.390625 4.9375s-.5546875 6.429688 1.734375 8.71875l11.335938 11.335938c14.695312 14.78125 34.691406 23.066406 55.535156 23.007812h98.785156v48h-88c-13.257812 0-24 10.746094-24 24s10.742188 24 24 24h88v72h-16c-30.914062.039062-55.960938 25.085938-56 56 0 4.417969 3.578125 8 8 8h32v16c0 4.417969 3.578125 8 8 8h64c4.417969 0 8-3.582031 8-8v-16h48v16c0 4.417969 3.578125 8 8 8h64c4.417969 0 8-3.582031 8-8v-16h32c4.417969 0 8-3.582031 8-8-.042969-30.914062-25.089844-55.960938-56-56h-16v-72h112c4.417969 0 8-3.582031 8-8v-32c0-4.417969-3.582031-8-8-8h-112v-48h16v8c0 13.253906 10.742188 24 24 24 13.253906 0 24-10.746094 24-24v-8h80c13.253906 0 24-10.746094 24-24s-10.746094-24-24-24zm-288 288h-16v-16c0-4.417969-3.582031-8-8-8h-31.203125c3.824219-18.613281 20.199219-31.980469 39.203125-32h16zm232-176h16v16h-16zm-32 0h16v16h-16zm-32 0h16v16h-16zm-136 160v16h-16v-144c0-4.417969 3.578125-8 8-8 4.417969 0 8 3.582031 8 8zm64-8h-48v-67.746094c7-9.585937 19.011719-14.117187 30.597656-11.542968 6.875 1.558593 12.945313 5.574218 17.074219 11.289062.085937.128906.230469.175781.328125.296875zm0-89.113281c-4.296875-2.742188-9.042969-4.710938-14.019531-5.816407-11.648438-2.550781-23.832031-.476562-33.980469 5.785157v-30.855469h48zm6.238281-46.886719h-60.480469c-4.5-5.089844-10.96875-8-17.757812-8-6.792969 0-13.261719 2.910156-17.761719 8h-94.238281c-4.421875 0-8-3.582031-8-8s3.578125-8 8-8h208v8c-6.789062.019531-13.246094 2.929688-17.761719 8zm-86.238281-32v-48h16v48zm32 0v-48h48v48zm80 192h-16v-144c0-4.417969 3.578125-8 8-8 4.417969 0 8 3.582031 8 8zm0-192h-16v-48h16zm32 136c19 .019531 35.375 13.386719 39.199219 32h-31.199219c-4.421875 0-8 3.582031-8 8v16h-16v-56zm-8-120v16h-14.242188c-.558593-.617188-1.144531-1.199219-1.757812-1.761719v-14.238281zm8-80h-258.785156c-15.429688.042969-30.324219-5.660156-41.777344-16h300.5625zm32 24c0 4.417969-3.582031 8-8 8-4.421875 0-8-3.582031-8-8v-64c0-4.417969 3.578125-8 8-8 4.417969 0 8 3.582031 8 8zm34.34375-24h-18.34375v-16h18.34375l-8 8zm24 0h-17.378906l8-8-8-8h17.378906l-8 8zm24 0h-17.378906l8-8-8-8h17.378906l-8 8zm13.65625 0h-7.035156l8-8-8-8h7.035156c4.417969 0 8 3.582031 8 8s-3.582031 8-8 8zm0 0"/></svg>