<?xml version="1.0" encoding="utf-8"?>
<!-- by Rodrigo Toledo  -->
<svg version="1.1" id="Capa_1" xmlns="http://www.w3.org/2000/svg" xmlns:xlink="http://www.w3.org/1999/xlink" x="0px" y="0px"
	 viewBox="0 0 398.3 150.9" enable-background="new 0 0 398.3 150.9" xml:space="preserve">
<g>
	<path fill="#103900" d="M243.4,125c-1.5,0-2.6-1.2-2.6-2.6V96.7c0-1.5,1.2-2.6,2.6-2.6h25.7c1.5,0,2.6,1.2,2.6,2.6v25.7
		c0,1.5-1.2,2.6-2.6,2.6H243.4z"/>
	<path d="M269.1,94.5c1.2,0,2.1,1,2.1,2.1v25.7c0,1.2-1,2.1-2.1,2.1h-25.7c-1.2,0-2.1-1-2.1-2.1V96.7c0-1.2,1-2.1,2.1-2.1H269.1
		 M269.1,93.5h-25.7c-1.7,0-3.1,1.4-3.1,3.1v25.7c0,1.7,1.4,3.1,3.1,3.1h25.7c1.7,0,3.1-1.4,3.1-3.1V96.7
		C272.3,94.9,270.9,93.5,269.1,93.5L269.1,93.5z"/>
</g>
<g>
	<path fill="#103900" d="M243.4,50.6c-1.5,0-2.6-1.2-2.6-2.6V22.3c0-1.5,1.2-2.6,2.6-2.6h25.7c1.5,0,2.6,1.2,2.6,2.6V48
		c0,1.5-1.2,2.6-2.6,2.6H243.4z"/>
	<path d="M269.1,20.1c1.2,0,2.1,1,2.1,2.1V48c0,1.2-1,2.1-2.1,2.1h-25.7c-1.2,0-2.1-1-2.1-2.1V22.3c0-1.2,1-2.1,2.1-2.1H269.1
		 M269.1,19.1h-25.7c-1.7,0-3.1,1.4-3.1,3.1V48c0,1.7,1.4,3.1,3.1,3.1h25.7c1.7,0,3.1-1.4,3.1-3.1V22.3
		C272.3,20.5,270.9,19.1,269.1,19.1L269.1,19.1z"/>
</g>
<line fill="none" stroke="#06BA63" stroke-width="2" stroke-miterlimit="10" x1="26.3" y1="12.5" x2="26.3" y2="126.5"/>
<line fill="none" stroke="#06BA63" stroke-width="2" stroke-miterlimit="10" x1="25.3" y1="125.7" x2="145.8" y2="125.7"/>
<g>
	<path fill="#103900" d="M89.9,137.2h2.4l-5.5,6.6l5.8,7.1h-2.4l-4.6-5.7l-4.7,5.7h-2.4l5.9-7.1l-5.5-6.6h2.4l4.3,5.2L89.9,137.2z"
		/>
</g>
<g>
	<path fill="#103900" d="M9.7,61.8h2.4l-5,6.4v7.2H5v-7.2l-5-6.4h2.4L6,66.5L9.7,61.8z"/>
</g>
<g>
	<path fill="#8CFBDE" d="M259.9,28.1h2.4l-5,6.6v7.4h-2v-7.4l-5-6.6h2.4l3.6,4.8L259.9,28.1z"/>
</g>
<g>
	<path fill="#8CFBDE" d="M260.6,102.7h2.4l-5.5,6.6l5.8,7.1H261l-4.6-5.7l-4.7,5.7h-2.4l5.9-7.1l-5.5-6.6h2.4l4.3,5.2L260.6,102.7z"
		/>
</g>
<g>
	<path fill="#103900" d="M306.6,28.2h2.4l-5,6.4v7.2h-2v-7.2l-5-6.4h2.4l3.7,4.7L306.6,28.2z"/>
	<path fill="#103900" d="M315.3,37.6H309c0,0.9,0.3,1.5,0.9,2.1s1.2,0.8,2.1,0.8c1.2,0,2.3-0.4,3.2-1.1V41c-0.5,0.4-1.1,0.6-1.6,0.8
		s-1.2,0.2-1.9,0.2c-1,0-1.8-0.2-2.4-0.6s-1.1-1-1.5-1.7s-0.6-1.5-0.6-2.4c0-1.4,0.4-2.5,1.2-3.3s1.8-1.3,3-1.3
		c1.2,0,2.1,0.4,2.9,1.2s1.1,1.9,1.1,3.3V37.6z M309,36.5h4.5c0-0.7-0.3-1.3-0.6-1.6s-0.9-0.6-1.5-0.6s-1.2,0.2-1.6,0.6
		S309.1,35.8,309,36.5z"/>
	<path fill="#103900" d="M322.9,36.5v3.8c0,0.3,0.1,0.5,0.3,0.5c0.2,0,0.5-0.2,1-0.5v1.1c-0.4,0.3-0.7,0.4-1,0.5s-0.5,0.1-0.8,0.1
		c-0.8,0-1.2-0.3-1.3-0.9c-0.8,0.6-1.6,0.9-2.4,0.9c-0.6,0-1.1-0.2-1.6-0.6s-0.6-0.9-0.6-1.6c0-0.6,0.2-1.1,0.6-1.5s1-0.8,1.7-1.1
		l2.3-0.8V36c0-1.1-0.5-1.6-1.6-1.6c-1,0-1.9,0.5-2.8,1.5v-1.9c0.7-0.8,1.7-1.2,3-1.2c1,0,1.7,0.3,2.3,0.8c0.2,0.2,0.4,0.4,0.5,0.6
		s0.3,0.5,0.3,0.8S322.9,35.7,322.9,36.5z M321.1,40.1v-2.7l-1.2,0.5c-0.6,0.2-1,0.5-1.3,0.7s-0.4,0.5-0.4,0.9
		c0,0.4,0.1,0.7,0.4,0.9s0.5,0.4,0.9,0.4C320.1,40.8,320.6,40.6,321.1,40.1z"/>
	<path fill="#103900" d="M327.6,32.9V35l0.1-0.2c0.9-1.4,1.7-2.1,2.6-2.1c0.7,0,1.4,0.3,2.1,1l-0.9,1.6c-0.6-0.6-1.2-0.9-1.7-0.9
		c-0.6,0-1.1,0.3-1.5,0.8s-0.6,1.2-0.6,1.9v4.7h-1.8v-9H327.6z"/>
</g>
<g>
	<path fill="#103900" d="M311.5,100.5h2l-5.6,14h-0.4l-4.6-11.3l-4.6,11.3h-0.4l-5.6-14h2l3.8,9.6l3.9-9.6h1.9l3.9,9.6L311.5,100.5z
		"/>
	<path fill="#103900" d="M321.3,109.5h-7.2c0,0.9,0.3,1.6,0.9,2.1s1.2,0.8,2.1,0.8c1.2,0,2.3-0.4,3.3-1.1v1.7
		c-0.6,0.4-1.1,0.6-1.7,0.8s-1.2,0.2-1.9,0.2c-1,0-1.8-0.2-2.4-0.6s-1.1-1-1.5-1.7s-0.6-1.5-0.6-2.4c0-1.4,0.4-2.5,1.2-3.3
		c0.8-0.9,1.8-1.3,3-1.3c1.2,0,2.1,0.4,2.9,1.2c0.7,0.8,1.1,2,2,3.3V109.5z M314.1,108.5h4.5c0-0.7-0.3-1.3-0.6-1.6
		c-0.4-0.4-0.9-0.6-1.5-0.6s-1.2,0.2-1.6,0.6C314.5,107.3,314.2,107.8,314.1,108.5z"/>
	<path fill="#103900" d="M330.3,109.5h-6.6c0,0.9,0.3,1.6,0.9,2.1s1.2,0.8,2.1,0.8c1.2,0,2.3-0.4,2.7-1.1v1.7c0,0.4-0.6,0.6-1.1,0.8
		s-1.2,0.2-1.9,0.2c-1,0-1.8-0.2-2.4-0.6s-1.1-1-1.5-1.7s-0.6-1.5-0.6-2.4c0-1.4,0.4-2.5,1.2-3.3c0.8-0.9,1.8-1.3,3-1.3
		c1.2,0,2.1,0.4,2.9,1.2c0.7,0.8,1.1,2,1.4,3.3V109.5z M323.7,108.5h4.5c0-0.7-0.3-1.3-0.6-1.6c-0.4-0.4-0.9-0.6-1.5-0.6
		s-1.2,0.2-1.6,0.6C324.1,107.3,323.8,107.8,323.7,108.5z"/>
	<path fill="#103900" d="M331.3,100.5h2v14h-2V100.5z M337.7,104.5h2.1l-3.8,4.4l4.6,4.6h-2.4l-4.5-4.6L337.7,104.5z"/>
	<path fill="#103900" d="M341.3,100.5h2v14h-2V100.5z"/>
	<path fill="#103900" d="M351.3,104.5h2.1l-6.6,14h-2l3.1-6.7l-3.6-7.3h2.1l2.5,5.2L351.3,104.5z"/>
	<path fill="#103900" d="M360.3,100.5h2v14h-2V100.5z"/>
	<path fill="#103900" d="M364.3,113.5v-2c0.5,0.4,1.1,0.7,1.6,0.9c0.6,0.2,1,0.3,1.4,0.3c0.4,0,0.7-0.1,1-0.3
		c0.3-0.2,0.4-0.4,0.4-0.7c0-0.3-0.1-0.5-0.3-0.7c-0.2-0.2-0.6-0.4-1.2-0.8c-1.2-0.7-2-1.3-2.4-1.7c-0.4-0.5-0.6-1-0.6-1.6
		c0-0.7,0.3-1.3,0.9-1.8c0.6-0.5,1.3-0.7,2.2-0.7c0.9,0,1.9,0.3,2.9,0.8v1.9c-1.1-0.7-2-1-2.8-1c-0.4,0-0.7,0.1-0.9,0.2
		c-0.2,0.2-0.3,0.4-0.3,0.6c0,0.2,0.1,0.4,0.3,0.6c0.2,0.2,0.6,0.4,1.1,0.7l0.7,0.4c1.6,0.9,2.4,1.9,2.4,3c0,0.8-0.3,1.4-0.9,1.9
		c-0.6,0.5-1.4,0.8-2.4,0.8c-0.6,0-1.1-0.1-1.5-0.2C365.5,114.1,365,113.8,364.3,113.5z"/>
	<path fill="#103900" d="M372.3,113.5v-2c0.5,0.4,1.1,0.7,1.6,0.9c0.6,0.2,1,0.3,1.4,0.3c0.4,0,0.7-0.1,1-0.3
		c0.3-0.2,0.4-0.4,0.4-0.7c0-0.3-0.1-0.5-0.3-0.7c-0.2-0.2-0.6-0.4-1.2-0.8c-1.2-0.7-2-1.3-2.4-1.7c-0.4-0.5-0.6-1-0.6-1.6
		c0-0.7,0.3-1.3,0.9-1.8c0.6-0.5,1.3-0.7,2.2-0.7c0.9,0,1.9,0.3,2.9,0.8v1.9c-1.1-0.7-2-1-2.8-1c-0.4,0-0.7,0.1-0.9,0.2
		c-0.2,0.2-0.3,0.4-0.3,0.6c0,0.2,0.1,0.4,0.3,0.6c0.2,0.2,0.6,0.4,1.1,0.7l0.7,0.4c1.6,0.9,2.4,1.9,2.4,3c0,0.8-0.3,1.4-0.9,1.9
		c-0.6,0.5-1.4,0.8-2.4,0.8c-0.6,0-1.1-0.1-1.5-0.2C373.5,114.1,373,113.8,372.3,113.5z"/>
	<path fill="#103900" d="M386.3,113.5v-1.2c-0.4,0.4-0.8,0.7-1.3,1c-0.5,0.2-1,0.3-1.5,0.3c-0.6,0-1.1-0.1-1.6-0.4
		c-0.5-0.3-0.9-0.7-1.1-1.2c-0.3-0.5-0.4-1.3-0.4-2.4v-5.1h2v5.1c0,0.9,0.1,1.6,0.4,2s0.7,0.6,1.4,0.6c0.8,0,1.6-0.4,2.2-1.2v-6.4h2
		v9H386.3z"/>
	<path fill="#103900" d="M398.3,109.5h-6.6c0,0.9,0.3,1.6,0.9,2.1s1.2,0.8,2.1,0.8c1.2,0,2.3-0.4,2.7-1.1v1.7c0,0.4-0.5,0.6-1,0.8
		s-1.2,0.2-1.9,0.2c-1,0-1.8-0.2-2.4-0.6s-1.1-1-1.5-1.7s-0.6-1.5-0.6-2.4c0-1.4,0.4-2.5,1.2-3.3c0.8-0.9,1.8-1.3,3-1.3
		c1.2,0,2.1,0.4,2.9,1.2c0.7,0.8,1.1,2,1.3,3.3V109.5z M391.7,108.5h4.5c0-0.7-0.3-1.3-0.6-1.6c-0.4-0.4-0.9-0.6-1.5-0.6
		s-1.2,0.2-1.6,0.6C392.1,107.3,391.9,107.8,391.7,108.5z"/>
</g>
<polygon fill="#103900" stroke="#103900" stroke-miterlimit="10" points="21.6,17.5 31,17.5 26.3,1.8 "/>
<polygon fill="#103900" stroke="#103900" stroke-miterlimit="10" points="140.3,120.8 140.3,130.2 156.1,125.5 "/>
</svg>
