<?xml version="1.0" encoding="utf-8"?>
<!-- by Rodrigo Toledo  -->
<svg version="1.1" id="Capa_1" xmlns="http://www.w3.org/2000/svg" xmlns:xlink="http://www.w3.org/1999/xlink" x="0px" y="0px"
	 viewBox="0 0 398.3 149.1" enable-background="new 0 0 398.3 149.1" xml:space="preserve">
<g>
	<path fill="#C7F9CC" d="M269.1,123.8h-25.7c-1.7,0-3.1-1.4-3.1-3.1V94.9c0-1.7,1.4-3.1,3.1-3.1h25.7c1.7,0,3.1,1.4,3.1,3.1v25.7
		C272.3,122.4,270.9,123.8,269.1,123.8z"/>
</g>
<g>
	<path fill="#C7F9CC" d="M269.1,49.4h-25.7c-1.7,0-3.1-1.4-3.1-3.1V20.5c0-1.7,1.4-3.1,3.1-3.1h25.7c1.7,0,3.1,1.4,3.1,3.1v25.7
		C272.3,48,270.9,49.4,269.1,49.4z"/>
</g>
<line fill="none" stroke="#22577A" stroke-width="4" stroke-miterlimit="10" x1="26.3" y1="10.8" x2="26.3" y2="124.8"/>
<line fill="none" stroke="#22577A" stroke-width="4" stroke-miterlimit="10" x1="25.3" y1="124" x2="145.8" y2="124"/>
<g>
	<path fill="#C7F9CC" d="M89.9,135.5h2.4l-5.5,6.6l5.8,7.1h-2.4l-4.6-5.7l-4.7,5.7h-2.4l5.9-7.1l-5.5-6.6h2.4l4.3,5.2L89.9,135.5z"
		/>
</g>
<g>
	<path fill="#C7F9CC" d="M9.7,60.1h2.4l-5,6.4v7.2H5v-7.2l-5-6.4h2.4L6,64.8L9.7,60.1z"/>
</g>
<g>
	<path fill="#22577A" d="M259.9,26.4h2.4l-5,6.6v7.4h-2V33l-5-6.6h2.4l3.6,4.8L259.9,26.4z"/>
</g>
<g>
	<path fill="#22577A" d="M260.6,100.9h2.4l-5.5,6.6l5.8,7.1H261l-4.6-5.7l-4.7,5.7h-2.4l5.9-7.1l-5.5-6.6h2.4l4.3,5.2L260.6,100.9z"
		/>
</g>
<g>
	<path fill="#C7F9CC" d="M306.6,26.5h2.4l-5,6.4v7.2h-2v-7.2l-5-6.4h2.4l3.7,4.7L306.6,26.5z"/>
	<path fill="#C7F9CC" d="M315.3,35.8H309c0,0.9,0.3,1.5,0.9,2.1s1.2,0.8,2.1,0.8c1.2,0,2.3-0.4,3.2-1.1v1.7
		c-0.5,0.4-1.1,0.6-1.6,0.8s-1.2,0.2-1.9,0.2c-1,0-1.8-0.2-2.4-0.6s-1.1-1-1.5-1.7s-0.6-1.5-0.6-2.4c0-1.4,0.4-2.5,1.2-3.3
		s1.8-1.3,3-1.3c1.2,0,2.1,0.4,2.9,1.2s1.1,1.9,1.1,3.3V35.8z M309,34.7h4.5c0-0.7-0.3-1.3-0.6-1.6s-0.9-0.6-1.5-0.6
		s-1.2,0.2-1.6,0.6S309.1,34,309,34.7z"/>
	<path fill="#C7F9CC" d="M322.9,34.7v3.8c0,0.3,0.1,0.5,0.3,0.5c0.2,0,0.5-0.2,1-0.5v1.1c-0.4,0.3-0.7,0.4-1,0.5s-0.5,0.1-0.8,0.1
		c-0.8,0-1.2-0.3-1.3-0.9c-0.8,0.6-1.6,0.9-2.4,0.9c-0.6,0-1.1-0.2-1.6-0.6s-0.6-0.9-0.6-1.6c0-0.6,0.2-1.1,0.6-1.5s1-0.8,1.7-1.1
		l2.3-0.8v-0.5c0-1.1-0.5-1.6-1.6-1.6c-1,0-1.9,0.5-2.8,1.5v-1.9c0.7-0.8,1.7-1.2,3-1.2c1,0,1.7,0.3,2.3,0.8
		c0.2,0.2,0.4,0.4,0.5,0.6s0.3,0.5,0.3,0.8S322.9,34,322.9,34.7z M321.1,38.4v-2.7l-1.2,0.5c-0.6,0.2-1,0.5-1.3,0.7
		s-0.4,0.5-0.4,0.9c0,0.4,0.1,0.7,0.4,0.9s0.5,0.4,0.9,0.4C320.1,39,320.6,38.8,321.1,38.4z"/>
	<path fill="#C7F9CC" d="M327.6,31.1v2.1l0.1-0.2c0.9-1.4,1.7-2.1,2.6-2.1c0.7,0,1.4,0.3,2.1,1l-0.9,1.6c-0.6-0.6-1.2-0.9-1.7-0.9
		c-0.6,0-1.1,0.3-1.5,0.8s-0.6,1.2-0.6,1.9v4.7h-1.8v-9H327.6z"/>
</g>
<g>
	<path fill="#C7F9CC" d="M311.5,98.8h2l-5.6,14h-0.4l-4.6-11.3l-4.6,11.3h-0.4l-5.6-14h2l3.8,9.6l3.9-9.6h1.9l3.9,9.6L311.5,98.8z"
		/>
	<path fill="#C7F9CC" d="M321.3,107.8h-7.2c0,0.9,0.3,1.6,0.9,2.1s1.2,0.8,2.1,0.8c1.2,0,2.3-0.4,3.3-1.1v1.7
		c-0.6,0.4-1.1,0.6-1.7,0.8s-1.2,0.2-1.9,0.2c-1,0-1.8-0.2-2.4-0.6s-1.1-1-1.5-1.7s-0.6-1.5-0.6-2.4c0-1.4,0.4-2.5,1.2-3.3
		c0.8-0.9,1.8-1.3,3-1.3c1.2,0,2.1,0.4,2.9,1.2c0.7,0.8,1.1,2,2,3.3V107.8z M314.1,106.8h4.5c0-0.7-0.3-1.3-0.6-1.6
		c-0.4-0.4-0.9-0.6-1.5-0.6s-1.2,0.2-1.6,0.6C314.5,105.5,314.2,106.1,314.1,106.8z"/>
	<path fill="#C7F9CC" d="M330.3,107.8h-6.6c0,0.9,0.3,1.6,0.9,2.1s1.2,0.8,2.1,0.8c1.2,0,2.3-0.4,2.7-1.1v1.7c0,0.4-0.6,0.6-1.1,0.8
		s-1.2,0.2-1.9,0.2c-1,0-1.8-0.2-2.4-0.6s-1.1-1-1.5-1.7s-0.6-1.5-0.6-2.4c0-1.4,0.4-2.5,1.2-3.3c0.8-0.9,1.8-1.3,3-1.3
		c1.2,0,2.1,0.4,2.9,1.2c0.7,0.8,1.1,2,1.4,3.3V107.8z M323.7,106.8h4.5c0-0.7-0.3-1.3-0.6-1.6c-0.4-0.4-0.9-0.6-1.5-0.6
		s-1.2,0.2-1.6,0.6C324.1,105.5,323.8,106.1,323.7,106.8z"/>
	<path fill="#C7F9CC" d="M331.3,98.8h2v14h-2V98.8z M337.7,102.8h2.1l-3.8,4.4l4.6,4.6h-2.4l-4.5-4.6L337.7,102.8z"/>
	<path fill="#C7F9CC" d="M341.3,98.8h2v14h-2V98.8z"/>
	<path fill="#C7F9CC" d="M351.3,102.8h2.1l-6.6,14h-2l3.1-6.7l-3.6-7.3h2.1l2.5,5.2L351.3,102.8z"/>
	<path fill="#C7F9CC" d="M360.3,98.8h2v14h-2V98.8z"/>
	<path fill="#C7F9CC" d="M364.3,111.8v-2c0.5,0.4,1.1,0.7,1.6,0.9c0.6,0.2,1,0.3,1.4,0.3c0.4,0,0.7-0.1,1-0.3
		c0.3-0.2,0.4-0.4,0.4-0.7c0-0.3-0.1-0.5-0.3-0.7c-0.2-0.2-0.6-0.4-1.2-0.8c-1.2-0.7-2-1.3-2.4-1.7c-0.4-0.5-0.6-1-0.6-1.6
		c0-0.7,0.3-1.3,0.9-1.8c0.6-0.5,1.3-0.7,2.2-0.7c0.9,0,1.9,0.3,2.9,0.8v1.9c-1.1-0.7-2-1-2.8-1c-0.4,0-0.7,0.1-0.9,0.2
		c-0.2,0.2-0.3,0.4-0.3,0.6c0,0.2,0.1,0.4,0.3,0.6c0.2,0.2,0.6,0.4,1.1,0.7l0.7,0.4c1.6,0.9,2.4,1.9,2.4,3c0,0.8-0.3,1.4-0.9,1.9
		c-0.6,0.5-1.4,0.8-2.4,0.8c-0.6,0-1.1-0.1-1.5-0.2C365.5,112.3,365,112.1,364.3,111.8z"/>
	<path fill="#C7F9CC" d="M372.3,111.8v-2c0.5,0.4,1.1,0.7,1.6,0.9c0.6,0.2,1,0.3,1.4,0.3c0.4,0,0.7-0.1,1-0.3
		c0.3-0.2,0.4-0.4,0.4-0.7c0-0.3-0.1-0.5-0.3-0.7c-0.2-0.2-0.6-0.4-1.2-0.8c-1.2-0.7-2-1.3-2.4-1.7c-0.4-0.5-0.6-1-0.6-1.6
		c0-0.7,0.3-1.3,0.9-1.8c0.6-0.5,1.3-0.7,2.2-0.7c0.9,0,1.9,0.3,2.9,0.8v1.9c-1.1-0.7-2-1-2.8-1c-0.4,0-0.7,0.1-0.9,0.2
		c-0.2,0.2-0.3,0.4-0.3,0.6c0,0.2,0.1,0.4,0.3,0.6c0.2,0.2,0.6,0.4,1.1,0.7l0.7,0.4c1.6,0.9,2.4,1.9,2.4,3c0,0.8-0.3,1.4-0.9,1.9
		c-0.6,0.5-1.4,0.8-2.4,0.8c-0.6,0-1.1-0.1-1.5-0.2C373.5,112.3,373,112.1,372.3,111.8z"/>
	<path fill="#C7F9CC" d="M386.3,111.8v-1.2c-0.4,0.4-0.8,0.7-1.3,1c-0.5,0.2-1,0.3-1.5,0.3c-0.6,0-1.1-0.1-1.6-0.4
		c-0.5-0.3-0.9-0.7-1.1-1.2c-0.3-0.5-0.4-1.3-0.4-2.4v-5.1h2v5.1c0,0.9,0.1,1.6,0.4,2s0.7,0.6,1.4,0.6c0.8,0,1.6-0.4,2.2-1.2v-6.4h2
		v9H386.3z"/>
	<path fill="#C7F9CC" d="M398.3,107.8h-6.6c0,0.9,0.3,1.6,0.9,2.1s1.2,0.8,2.1,0.8c1.2,0,2.3-0.4,2.7-1.1v1.7c0,0.4-0.5,0.6-1,0.8
		s-1.2,0.2-1.9,0.2c-1,0-1.8-0.2-2.4-0.6s-1.1-1-1.5-1.7s-0.6-1.5-0.6-2.4c0-1.4,0.4-2.5,1.2-3.3c0.8-0.9,1.8-1.3,3-1.3
		c1.2,0,2.1,0.4,2.9,1.2c0.7,0.8,1.1,2,1.3,3.3V107.8z M391.7,106.8h4.5c0-0.7-0.3-1.3-0.6-1.6c-0.4-0.4-0.9-0.6-1.5-0.6
		s-1.2,0.2-1.6,0.6C392.1,105.5,391.9,106.1,391.7,106.8z"/>
</g>
<polygon fill="#C7F9CC" points="21.6,15.8 31,15.8 26.3,0 "/>
<polygon fill="#C7F9CC" points="140.3,119.1 140.3,128.4 156.1,123.8 "/>
</svg>
