<svg height="480pt" fill="#FFFFFF" viewBox="0 0 480 480.02747" width="480pt" xmlns="http://www.w3.org/2000/svg"><path d="m472.015625 328.003906h-30.160156l-58.816407-107.832031-7.265624-13.3125c8.097656-18.5625 12.265624-38.601563 12.242187-58.855469 0-1.351562-.167969-2.65625-.203125-4h36.203125c4.417969 0 8-3.582031 8-8 0-4.417968-3.582031-8-8-8h-37.515625c-7.347656-54.816406-44.71875-100.925781-96.828125-119.464844-52.105469-18.539062-110.203125-6.394531-150.523437 31.464844h-67.132813c-4.421875 0-8 3.582032-8 8 0 4.417969 3.578125 8 8 8h52.269531c-4.019531 5.085938-7.707031 10.433594-11.03125 16h-89.238281c-4.421875 0-8 3.582032-8 8 0 4.417969 3.578125 8 8 8h80.796875c-16.925781 37.722656-17.117188 80.84375-.519531 118.710938l-103.304688 189.457031c-.0625.121094-.054687.253906-.109375.375-.207031.484375-.367187.988281-.472656 1.503906-.160156.523438-.265625 1.058594-.3125 1.601563 0 .128906-.078125.238281-.078125.375v72c0 4.417968 3.578125 8 8 8h40c.757813 0 1.511719-.109375 2.238281-.320313l21.761719-6.367187c109.703125-32.054688 226.292969-32.054688 336 0l21.757813 6.34375c.726562.210937 1.480468.316406 2.242187.320312h40c4.417969 0 8-3.582031 8-8v-136c0-4.417968-3.582031-8-8-8zm-8 32h-80v16h80v16h-192v-48h192zm-384 16h32v-16h-30.53125c3.378906-9.554687 12.394531-15.957031 22.53125-16h152v48h-176zm56 32v34.214844c-10.707031 1.839844-21.371094 3.972656-32 6.402344v-40.617188zm16 0h32v27.945313c-10.691406.972656-21.363281 2.160156-32 3.703125zm48 0h32v25.429688c-10.675781.136718-21.347656.523437-32 1.21875zm48 0h32v26.648438c-10.65625-.695313-21.328125-1.082032-32-1.21875zm48 0h32v31.648438c-10.640625-1.542969-21.3125-2.730469-32-3.703125zm48 0h32v40.609375c-10.625-2.414062-21.292969-4.546875-32-6.402343zm-80-80h-160c-22.082031.027344-39.976563 17.917969-40 40v24h-42.523437l83.320312-152.746094 21.96875-13.183593 27.585938 27.585937c3.121093 3.121094 8.1875 3.121094 11.3125 0l26.335937-26.34375 26.34375 26.34375c3.121094 3.121094 8.1875 3.121094 11.308594 0l26.347656-26.34375 26.34375 26.34375c3.121094 3.121094 8.1875 3.121094 11.308594 0l26.347656-26.34375 26.34375 26.34375c3.121094 3.121094 8.1875 3.121094 11.308594 0l16.441406-16.441406 49.519531 90.785156zm102.109375-105.425781-14.109375 14.113281-26.347656-26.34375c-3.121094-3.125-8.1875-3.125-11.308594 0l-26.34375 26.34375-26.347656-26.34375c-3.121094-3.125-8.1875-3.125-11.308594 0l-26.34375 26.34375-26.347656-26.34375c-3.121094-3.125-8.1875-3.125-11.308594 0l-26.34375 26.34375-26.347656-26.34375c-2.59375-2.597656-6.625-3.089844-9.773438-1.199218l-3.039062 1.824218c.214843-.609375.351562-1.238281.40625-1.882812l35.503906-65.085938h166.496094zm-258.109375-74.574219c.003906-20.875 5-41.445312 14.566406-60h21.433594c4.417969 0 8-3.582031 8-8 0-4.417968-3.582031-8-8-8h-11.746094c4-5.671875 8.4375-11.019531 13.273438-16h30.472656c4.417969 0 8-3.582031 8-8 0-4.417968-3.582031-8-8-8h-11.65625c37.308594-26.265625 85.558594-31.339844 127.515625-13.414062 41.957031 17.925781 71.644531 56.296875 78.457031 101.414062h-2.316406c-4.421875 0-8 3.582032-8 8 0 4.417969 3.578125 8 8 8h3.796875c0 1.34375.203125 2.648438.203125 4 .015625 13.710938-2.109375 27.34375-6.304687 40.398438l-30.671876-56.230469c-1.402343-2.570313-4.097656-4.167969-7.023437-4.167969h-176c-2.929687 0-5.625 1.597656-7.027344 4.167969l-30.574219 56.105469c-4.21875-13.011719-6.378906-26.597656-6.398437-40.273438zm-92 260h24v56h-24zm51.519531 49.976563-11.519531 3.359375v-53.335938h32v44.390625c-6.851563 1.746094-13.675781 3.605469-20.480469 5.585938zm324.480469-5.601563v-44.375h32v53.335938l-11.523437-3.359375c-6.804688-1.984375-13.628907-3.847657-20.476563-5.585938zm72 11.625h-24v-56h24zm0 0"/><path d="m128.015625 360.003906h16v16h-16zm0 0"/><path d="m160.015625 360.003906h16v16h-16zm0 0"/><path d="m192.015625 360.003906h16v16h-16zm0 0"/><path d="m224.015625 360.003906h16v16h-16zm0 0"/><path d="m288.015625 360.003906h16v16h-16zm0 0"/><path d="m320.015625 360.003906h16v16h-16zm0 0"/><path d="m352.015625 360.003906h16v16h-16zm0 0"/><path d="m408.015625 112.003906h64c4.417969 0 8-3.582031 8-8 0-4.417968-3.582031-8-8-8h-64c-4.421875 0-8 3.582032-8 8 0 4.417969 3.578125 8 8 8zm0 0"/><path d="m472.015625 160.003906h-64c-4.421875 0-8 3.582032-8 8 0 4.417969 3.578125 8 8 8h64c4.417969 0 8-3.582031 8-8 0-4.417968-3.582031-8-8-8zm0 0"/><path d="m472.015625 128.003906h-16c-4.421875 0-8 3.582032-8 8 0 4.417969 3.578125 8 8 8h16c4.417969 0 8-3.582031 8-8 0-4.417968-3.582031-8-8-8zm0 0"/><path d="m40.015625 24.003906h48c4.417969 0 8-3.582031 8-8 0-4.417968-3.582031-8-8-8h-48c-4.421875 0-8 3.582032-8 8 0 4.417969 3.578125 8 8 8zm0 0"/><path d="m8.015625 56.003906h32c4.417969 0 8-3.582031 8-8 0-4.417968-3.582031-8-8-8h-32c-4.421875 0-8 3.582032-8 8 0 4.417969 3.578125 8 8 8zm0 0"/><path d="m120.015625 24.003906h16c4.417969 0 8-3.582031 8-8 0-4.417968-3.582031-8-8-8h-16c-4.421875 0-8 3.582032-8 8 0 4.417969 3.578125 8 8 8zm0 0"/></svg>