<?xml version="1.0" encoding="utf-8"?>
<!-- by Rodrigo Toledo  -->
<svg version="1.1" id="Capa_1" xmlns="http://www.w3.org/2000/svg" xmlns:xlink="http://www.w3.org/1999/xlink" x="0px" y="0px"
	 viewBox="0 0 744 305.1" enable-background="new 0 0 744 305.1" xml:space="preserve">
<path stroke="#000000" stroke-miterlimit="10" d="M744,80.1c0,0.5,0,1,0,1.5c-3.7,1.2-7.5,2.5-11.2,3.7c0.1,0.3,0.2,0.6,0.3,0.9
	c2.6-0.5,5.2-1,7.8-1.5c-1.7,1.6-3.3,3.2-4.6,4.4c0.3,1,0.7,2,1,2.9c-0.2,0-0.5,0-0.7,0c-1.7-0.7-3.5-1.3-5.1-2.1
	c-2.2-1.1-4-0.9-5.3,1.3c-1.5,0.3-3,0.6-4.5,0.8c-0.6-1.1,0.4-3.3-2.2-2.8c0-0.6,0-1.1-0.1-1.7c3.7,0.5,7.6,2.1,11.1-1.8
	c-1.6-0.5-2.5-0.8-3.4-1.1c0.7-0.5,1.4-1,2.1-1.5c0,0,0,0,0,0c0.9-0.3,1.9-0.7,2.8-1c0.2-0.4,0.5-0.9,0.7-1.3
	c3.2-1.1,6.5-2.2,10.4-3.4c-0.8,1.3-1.2,1.8-1.8,2.7C742.4,80.1,743.2,80.1,744,80.1z"/>
<path stroke="#000000" stroke-miterlimit="10" d="M744,75.6c-5,1-9.9,2-14.9,3l0,0c0-0.3,0-0.7,0-1c0.7-0.4,1.4-0.8,2.1-1.2
	c2.5-0.4,5-0.9,7.5-1.3c1.7-0.3,3.5-0.6,5.2-0.9C744,74.6,744,75.1,744,75.6z"/>
<path stroke="#000000" stroke-miterlimit="10" d="M381.8,299.7c-5.1-3.6-7.4-8.5-7.4-14.6c0-1.8-0.7-3.6-1-5.4c0-0.8,0-1.5,0.1-2.3
	c0.1-0.3,0.1-0.5,0.2-0.8c0.2-1.3,0.3-2.5,0.5-3.8c0.1-2.7,0.1-5.4,0.2-8.1c0-0.7,0-1.5,0-2.2c0.3-3.2,0.4-6.4,0.9-9.6
	c1.3-7.4,2.9-14.7,4.3-22c0.9-4,1.8-8.1,2.8-12.1c0.3-2,0.6-4,0.9-5.9c0.2-1.5,0.4-3,0.7-4.5c0.5-2.9,1-5.8,1.6-8.6
	c0.1-0.5,1-0.8,1.5-1.2c3.5-2,2.3-6,3.7-8.9c2.4-2.2-0.4-4.5,0.1-6.7c0.5-2.3,1.1-4.6,1.4-7c0.1-0.4-1-0.9-1.5-1.4
	c-0.2-0.4-0.4-0.9-0.6-1.3c0.2-1.3,0.5-2.5,0.7-3.8c2-3.6,0.8-11.9-2.1-14.4c-0.4-0.4-1.2-0.8-1.6-0.7c-2.1,0.9-4.1,1.9-6.2,2.9
	c-2,0.1-3.9,0.1-5.9,0.2c-2-1.8-4.1-3.6-6.1-5.4c-0.5-0.5-1-1-1.5-1.5c-0.2-0.1-0.4-0.1-0.6-0.2c-1.4-2.2-2.7-4.3-4.1-6.5
	c-2.1-5.5-4.2-11.1-6.2-16.6c-0.1-2.5-0.2-5-0.3-7.4c-0.3-1.5-0.5-3-0.8-4.5c-0.2-1-0.4-1.9-0.6-2.9c0.9-0.7,1.9-1.5,2.8-2.2
	c0.7-1,1.3-2.1,2-3.1c3.8-1.3,7.7-2.6,11.5-3.9c1-0.5,2.1-0.9,3.1-1.4c3.1-0.3,6.1-0.8,9.2-0.7c2.4,0.1,4.8,1,7.2,1.5
	c1.7,0.8,3.3,1.6,5,2.3c3.8,1.7,5.3,1.2,7.5-2.2c3.2-5,4.7-10.6,5.1-16.5l0-0.1c0.2-0.3,0.4-0.6,0.6-0.8c0.4-5.6,0.3-11.3,1.3-16.8
	c0.5-2.8,1-4.9-1.7-6.1c-0.1-3.7,0.8-6.1,4.8-6.8c1.2-0.2,2-2.7,3-4.1c0.8-1,1.5-2,2.3-3.1c5-2.6,8.8-0.1,12.3,3
	c1.3,1.2,2.4,2.5,3.5,3.8c1,1.7,2,3.4,3.1,5.2c1,2.1,1.9,4.2,2.9,6.3c0.5,4,1,7.9,1.5,11.9c-0.2,2-0.4,3.9-0.6,5.9
	c-0.4,3.6,0.6,7.6-2.6,10.5c-0.9,0.8-1.8,1.6-2.7,2.3l0,0c-2.5,2.4-4.4,9.6-3.2,11.9c1.6,0,3.2,0,4.8-0.1c0.7,0,1.4,0.1,2.2,0.1
	c0.5,0,1,0,1.6,0c1.5,0,3,0,4.5,0c3.9,0.2,6.2-2.4,8.3-5.1c3.9,4.4,7.8,8.9,11.7,13.3c1.1,1.2,2,2.6,3,3.9c0.8,2.8,1.6,5.6,2.5,8.3
	c0,0,0,0,0,0c-0.8,0.2-1.6,0.3-2.4,0.5c-0.2,0-0.4,0-0.6,0.1c-2.6,2.1,0.3,4.1,0,6.1c0,0,0,0,0,0c-0.8,1-1.6,2-2.4,3
	c-0.5,0.8-1,1.6-1.5,2.4c-0.5,3-0.8,6-1.6,8.9c-0.6,2.3-1.8,4.5-2.8,6.8c-7.3-4.2-14.5-8.4-21.9-12.7c-3,4-3.9-1.2-6.3-2.4
	c-0.1,3.3-4.7,4.7-2.7,8.6c0.1,0.2-0.3,0.7-0.3,1c-1.1,6.2-2.3,12.4-3.2,18.6c-0.7,5-1.1,10.1-1.4,15.2c-0.1,0.9,0.7,1.9,1.4,3.8
	c1.2-2.6,1.7-4.2,2.7-5.5c2-2.7,4.3-5.3,6.4-7.9c0.9-0.5,1.9-0.9,2.8-1.4c0.5,0.3,1,0.5,1.5,0.8c0.6,1.1,1.3,2.3,2.1,3.6
	c0.6,0,1.6,0,2.5,0c0.8,2.2,2.1,3,5,0.9c0.3,2.7,0.6,4.8,0.9,7.3c1.2-1,2.3-2.1,3.5-2.9c1.9-1.4,1.4-2.7-0.2-3.8
	c-1.9-1.3-3.9-2.5-6.3-4.1c1.8-0.5,2.8-0.8,3.9-1.2c2.5,1.5,5,3,7.4,4.6c0.8,1.7,1.5,3.4,2.3,5.1c-1.3-0.2-2.6-0.3-3.8-0.4
	c-0.7,1.8-1.5,3.6-2.2,5.3c-0.7,0.6-1.4,1.1-2.9,2.4c2.8,0.4,4.7,0.6,6.6,0.9c2.9,3.9,5.9,8.1,8.9,12.2c0.2,0.3,0.5,0.6,0.7,0.9
	c1,1,2,1.9,3.1,2.9c3.3,3,6.2,6.3,6.1,11.2c-0.9,0.2-1.8,0.5-3.2,0.8c1.2,0.7,1.9,1.1,2.6,1.6c-0.5,2.3-0.4,5.2-1.8,6.8
	c-2,2.3-5,3.7-7.6,5.5c-0.3,0.2-0.7,0.2-1.1,0.3c-4.1,0.8-8.2,1.6-12.3,2.4c-3.2,0-6.3,0-9.5,0c-0.6,0.2-1.3,0.4-1.9,0.6
	c-3-1.2-5.9-2.4-8.9-3.5c-0.2-0.5-0.4-1.1-0.7-1.6c-1.1-2.3-2.2-4.5-3.3-6.8c-0.2-0.2-0.4-0.5-0.6-0.7l0,0c-1.6-7-3.2-14-4.9-21.3
	c-3.2,4.2-3.4,8.9-1.4,11.2c-0.7,5.5-2.4,10.6-1.8,15.4c0.9,6.7-0.4,12.7-2.2,18.9c-1.5,5.4-2.7,10.9-4,16.3
	c-2.9,8-3.5,16.4-4.8,24.7c-0.6,3.8,0.9,8.4-4.5,10.1c-0.6,0.2-0.9,1.7-1.3,2.5c-0.9,1.9-2.2,2.2-3.9,0.9c-1.2-1-2.2-2.3-3.6-3.1
	c-0.8-0.5-2.1-0.4-3.2-0.6c-2.2,0.5-4.5,1-6.7,1.6c-0.8,0.4-1.5,0.9-2.5,1.5C383,302.3,382.4,301,381.8,299.7z M396,174.5
	c-0.5-0.2-1.1-0.4-1.6-0.6c0,0.2-0.1,0.3-0.1,0.5c0.5,0.1,1.1,0.1,1.6,0.2c-0.7,2.8-1.5,5.5-2.2,8.3c0.6,0.1,1.3,0.2,1.9,0.3
	C395.8,180.4,395.9,177.5,396,174.5z"/>
<path stroke="#000000" stroke-miterlimit="10" d="M490.2,282.4c-2.8-6-5.6-12-8.5-17.9c-0.6-2.2-1.1-4.3-1.7-6.5
	c0.2-0.3,0.4-0.6,0.6-0.9c0-1.2-0.1-2.5-0.1-3.7c0.3-0.5,0.5-1.1,0.8-1.6c0.2-0.8,0.5-1.5,0.7-2.3c0.1-0.7,0.2-1.4,0.4-2.1
	c5.2-3.3,5.5-9.8,8.9-14.2c0.2-0.5,0.5-1,0.7-1.5c0,0,0,0,0,0c2.1-0.5,4.5-0.6,6.3-1.7c3.1-1.7,5.8-4.1,8.6-6.2
	c0.9-0.7,1.6-1.7,2.4-2.6c1-1,1.9-2,2.9-3c0.3-0.1,0.5-0.1,0.8-0.2c1-1.5,1.9-2.9,2.9-4.4c5.4-8.1,9-17.1,11.8-26.4
	c0.2-0.3,0.4-0.5,0.7-0.8c1.6,0.5,3.1,1,4.7,1.5c-1,1.4-2,2.8-2.4,3.3c2.3,2.9,5.1,5.6,6.8,8.9c0.9,1.8,0.6,4,3.2,4.7
	c0.3,0.1,0.6,2,0.3,2.9c-0.6,2-1.6,4-2.5,6c3.2,0.4,5.9,0.8,8.7,1.1c0.1,0.3,0.2,0.7,0.3,1c-1.9,1.1-3.9,2.2-5.8,3.3
	c-0.8,0.5-2.1,0.9-2.2,1.6c-0.5,3.3-3.8,4.9-3.9,8.9c-0.1,3.1,0.2,4.9,1.9,7.1c0.6,0.8,1.2,2.7,0.8,3.2c-2.7,3.3-2.7,6.9-2.1,10.7
	c0.1,0.6-1.3,1.7-2.3,2.2c-0.6,0.3-1.6,0.1-2.5,0.1c0.7,2.9,1.4,5.6,2.1,8.2c-3.4,6.1-7.1,11.9-10,18.2c-3.3,7.1-9.3,10.9-15.8,14.4
	c-2.9-0.3-5.8-0.5-8.7-0.8l-0.1-0.1c-0.6-0.4-1.2-0.8-1.8-1.3C494.8,288.6,492.5,285.5,490.2,282.4z"/>
<path stroke="#000000" stroke-miterlimit="10" d="M580.6,291.4c-4.8-2.6-5.1-7.6-5.9-12c-1.1-5.3-1.2-10.8-1.7-16.3c0-1.5,0-3,0-4.5
	c0.2-3.2,0.9-6.4,0.7-9.6c-0.5-6.8-1.4-13.6-2.1-20.4c0.1-0.2,0.1-0.5,0.2-0.7c1.2,0.4,2.4,0.9,3.8,1.3c-3,4.1-1.2,8.1,2.9,9.4
	c0.5,2.7,0.3,5.6,1.6,6.6c1.5,1.2,5.1,2,6.4,1.1c4.2-3,7.9-4.1,12.5-1.2c2.5,1.5,4.8-0.4,7.1-1.4c-0.2,1.5-0.5,3-0.7,4.5
	c-0.1,0.1-0.3,0.2-0.3,0.2c0,0.2,0.1,0.4,0.2,0.5c0.1,0.7,0.2,1.4,0.3,2c0.4-0.5,0.9-1,1-1.5c0.2-1,0-2,0-3.3
	c1.1,0.8,1.8,1.3,2.4,1.8c0.3-0.3,0.6-0.6,0.9-0.9c0.2-0.2,0.4-0.4,0.7-0.7c0.3-0.2,0.5-0.4,0.8-0.7c0.3,1.1,0.6,2.2,0.8,3.3
	c0.4,1.8,0.8,3.5,1.2,5.3c0.4,2.6,2.6,6.4,4,6.8c1.1,2.6,1,4.9-1,6.9c1,1.6,2,3.1,3,4.7c-0.3,0.1-0.6,0.2-1,0.3
	c0.3,1.4,0.2,3.7,1.1,4.1c3.3,1.6,2.7,3.4,0.9,5.6c-0.3,1.7-0.5,3.4-0.8,5c-0.3,0.6-0.5,1.3-0.8,1.9c-6.1-1.3-5,4.5-7.5,7.6
	c-0.4-0.8-0.9-1.5-1.3-2.3c-2,2.2-2,2.2-4.8-0.9c-1,0.7-1.9,1.7-3,2.1c-1.5,0.5-3.2,0.6-4.8,0.9c-0.8,0-1.7-0.1-2.5-0.1
	c0,0-0.1,0-0.1,0c-0.2,0-0.4,0-0.6,0c-0.1-1.5-0.2-3-0.3-4.6c-0.3,0-0.5,0-0.8,0c0,2,0,4,0,6.1c-2.7-1.7-4.9-3.2-7.7-5.1
	c-0.1-0.9-0.2-2.6-0.3-4.4c-0.3-0.1-0.7-0.2-1-0.3c-0.6,1-1.2,1.9-1.9,2.9C581.5,291.4,581,291.4,580.6,291.4z M590.3,271.4
	c1.2,2.7,2.5,2.8,3.7,0c0.5-0.3,1-0.5,1.5-0.8c0,0,0,0,0,0c0.6,0.6,1.2,1.3,1.7,1.9c0.4-0.6,1.2-1.2,1.1-1.7
	c-0.1-0.6-0.9-1.2-1.4-1.7c-1.1-1.1-2.2-2.2-3.3-3.2c0.3-0.3,0.5-0.6,0.8-0.8c3,0.4,5.9,0.8,8.9,1.2c-0.1,0.4-0.4,1.1-0.6,1.8
	c0.3,0.2,0.6,0.4,0.9,0.6c1.2-1.4,2.4-2.7,4-4.5c-3.7-0.5-6.7-1-9.6-1.4c0-0.4-0.1-0.9-0.1-1.3c1.5-1.4,3-2.9,4.9-4.7
	c-0.2-1.6-0.6-3.7-1-6.3c0,0,0.4-0.5,0.8-1c-2.5-0.5-5.3-0.4-6.8-1.6c-1.8-1.5-2.6-0.9-4.1,0c-2.1,1.2-4.3,2.1-6.5,3.1
	c-0.2-0.3-0.3-0.5-0.5-0.8c-0.6,1.4-1.1,2.9-1.6,4.1c2.9,3,6,3.6,9.7,1C594.4,261.5,592,266.3,590.3,271.4z M613.8,281.8
	c-0.6-3.8-1.2-7.6-1.9-12.1C609.1,274.8,611.9,278.3,613.8,281.8z"/>
<path stroke="#000000" stroke-miterlimit="10" d="M719.2,87.6c0,0.6,0,1.1,0.1,1.7c2.6-0.5,1.7,1.7,2.2,2.8
	c-0.2,0.4-0.6,0.9-0.5,1.2c0.8,2,1.7,4,2.6,6c-1.6,2.1-3.2,4.2-4.8,6.4c-0.1,0.2-0.1,0.5-0.2,0.7c0,2,0,4,0,6
	c-0.2,0.5-0.4,1-0.6,1.5c-0.3,0.3-0.7,0.6-1,0.9c-0.5,0.9-0.9,1.9-1.4,2.8c-0.8,2.2-1.6,4.5-2.4,6.7c-1.5,2-3,4.1-4.4,6.1
	c0,0,0,0,0,0c-1.3,1.3-2.6,2.5-3.8,3.8c-0.7,0.5-1.4,1-2.1,1.5c-1.8,0.2-3.6,0.5-5.4,0.7c-2.5-0.9-5-1.9-7.5-2.8
	c-1.2-1.1-2.5-2.3-3.7-3.4c-0.6-0.1-1.2-0.3-1.8-0.4c-3.4,0.1-6.8-0.1-9.6-2.4c-0.9-1-1.9-2-2.6-3.2c-0.9-1.5-1.5-3.1-2.3-4.7
	c-0.7-2.5-1.5-4.9-2.2-7.4c-1.4-4.7-3.3-9.2-3.9-14c-0.6-4.4-1.9-8.1-4.7-11.5c-1.5-1.8-4.2-3.4-1.5-6.3c0.3-0.4,0.2-1.6-0.2-2.1
	c-1.7-2.3-0.9-4,1.1-5.5c1.7-0.5,3.5-1,5.2-1.5c2.6,0.1,5.3,0.3,8.1,0.4c-1-2.3-1.9-4.2-3-6.6c1.9,0.3,3.9,0.7,6.6,1.2
	c0.1-0.1,0.6-0.9,1.1-1.6c0.3,0,0.7-0.1,0.8,0c3.8,4.3,8.2,1.7,12.4,1c2-0.3,3.7-0.8,3.9,2.2c-1.7,0.8-3.3,1.6-4.9,2.4
	c0,0.4,0,0.8,0,1.1c7.9,1,15.8,1.9,23.7,2.9c-0.5,0.9-1,1.9-1.5,2.8c-0.1,0.1-0.1,0.1-0.2,0.2c0.1,0.1,0.3,0.2,0.4,0.2
	c0.5,0,1.1-0.1,1.6-0.1c0.2,0.6,0.4,1.3,0.6,1.9c0.2,0.1,0.4,0.1,0.7,0.1c1.5,0,3-0.1,4.6-0.1l0.4,0l0.3-0.1c0.3,0,0.5-0.1,0.8-0.1
	c0.7-0.2,1.5-0.3,2.2-0.5c0.4,0,0.9,0.1,1.3,0.1c-0.9,0.7-1.8,1.7-2.8,2.1c-1.8,0.6-3.8,0.8-5.7,1.2c0,0.4,0.1,0.7,0.1,1.1
	c1.9,0.3,3.8,0.5,5.6,0.8c-0.4,0.4-0.8,0.7-1.4,1.3c1.2,0.2,2.1,0.3,3.1,0.4C721.2,86.4,720.2,87,719.2,87.6z M716.5,88
	c-0.2,0-0.4,0-0.5,0c0.1,0.1,0.2,0.2,0.3,0.2C716.3,88.2,716.4,88.1,716.5,88z"/>
<path stroke="#000000" stroke-miterlimit="10" d="M24.8,137.1c0.4,0.1,0.7,0.2,1.1,0.3c2.6,2.4,2.2-0.8,2.2-1.5
	c0.2-2.8,0.1-5.7,0.1-8.5c0.4,0.1,0.8,0.2,1.1,0.4c0.7-0.8,1.5-1.5,2.2-2.4c1.4-1.9,2.6-3.9,4-5.8c2.3-3,4.9-5.6,3.8-10.2
	c-0.8-3.6-0.1-7.5-0.4-11.2c-0.1-1.5-1-2.9-1.1-4.3c-0.3-2.3-0.6-4.7-0.8-7c-0.1-1.3-0.2-2.5-0.2-3.8c0.2-0.4,0.5-0.9,0.5-1.3
	c-0.4-3.4-1-6.8-1.1-10.2c0-0.7,1.8-2.3,2.4-2.1c2.9,0.9,5.7,2.2,8.5,3.3c1.3,1.7,2.6,3.4,3.9,5.2c-0.3,2.2,0.7,3.4,2.9,3.6
	c0.9,0.9,1.7,1.9,2.6,2.8c0.6,2.1,1.5,4.1,1.9,6.2c0.6,3.4,2.8,3.8,5.7,3.4c-0.4-1.1-0.8-1.9-1.1-2.8c0.4,0,0.9-0.1,1.3-0.1
	c0.3,0,0.6,0.1,1,0.1c2.6,2,5.3,3.9,8.3,6.2c-1.3,1.1-2.6,2.3-3.4,2.9c4,2.2,8.2,3.9,11.7,6.6c3.4,2.7,6.1,6.5,9,9.8
	c1.5,2.8,2.9,5.6,4.4,8.4c1,3.5,2,7,2.9,10.4c-0.8,6.9-1.2,13.9-2.5,20.7c-1.1,5.8-3.2,11.5-5.1,17.1c-1.7,4.8-3.8,9.5-5.9,14.2
	c-0.8,1.8-1.7,3.9-3.2,4.9c-3.1,2-2.6,5.5-4.2,8c-0.2,0.3,0.9,1.3,1.1,2c0.5,1.8,1.8,4.9,1.3,5.3c-3.6,2.5-2.8,7-5.2,10.1
	c-2.3,2.9-3.7,6.5-5.5,9.7c-2,1.3-3.9,2.8-6,3.9c-3.5,1.8-7.4,2.9-10.6,5.2c-5.6,4.1-10.6,2.2-15.9-0.3c-3.2-1.5-6.4-3.3-9.8-4.1
	c-3.7-0.8-7.7-0.6-11.5-0.8c-0.2-0.1-0.5-0.1-0.7-0.2c-2.6-0.7-5.1-1.3-7.7-2c-2.2-1.3-4.5-2.6-6.7-3.9c0.8-3.9,1.3-7.9,2.4-11.6
	c2.3-7.4,4.9-14.8,7.3-22.2c0.8-2.4,1.1-5,1.9-7.5c1.6-5.3,3.3-10.5,5-15.7c0.2-0.7,0.5-1.5,0.7-2.2c0.3-2.6,0.4-5.2,0.9-7.7
	c0.7-3.2,1.8-6.3,2.7-9.5c1-3.5,2-7.1,3.1-10.6C24.2,138,24.5,137.6,24.8,137.1z"/>
<path stroke="#000000" stroke-miterlimit="10" d="M204.8,269.7c0.1-0.3,0.2-0.7,0.2-1c-4.3-1-8.5-2.1-12.8-3.2
	c0.8-0.3,1.8-0.7,2.7-1.1c3-1.7,6-3.4,9-5.1c8-8,16-16,24-23.9c0.3-0.4,0.6-0.8,1-1.2c0.8-0.7,1.5-1.3,2.3-2c0.6-0.5,1.2-1,1.8-1.5
	l-0.1-0.2c1.4-0.1,2.9-0.1,3.9-0.2c0.2,1.5,0.3,2.8,0.5,4c1.3-1.3,2.6-2.6,4.3-4.4c1.4,2.4,2.8,4.8,4.5,7.6
	c-0.5,0.4-1.4,1.1-2.1,1.5c0.9,2.2,1.6,4,2.1,5.2c1.9-0.2,3.5-0.4,5-0.6c-1.3,2.7-2.5,5.5-3.8,8.2c-0.7,2.3-5.1,3.2-3.4,5.7
	c-2.6,3.5-5,6.4-7.1,9.6c-1.2,1.9-10,8.7-12,8.7c-0.2,0-0.5-0.2-0.7-0.2c-1.5,0.1-2.9,0.3-4.4,0.5c-1.2-0.6-2.4-1.1-3.7-1.7
	c-0.4-0.3-0.9-0.5-1.3-0.8c-1.8-0.8-3.6-1.5-5.4-2.3C207.9,270.7,206.4,270.2,204.8,269.7z"/>
<path stroke="#000000" stroke-miterlimit="10" d="M557.3,83.9c6.8-2.5,13.5-5.3,20.9-3.9c4.2,0.8,8.3,2.2,12.5,3.2
	c1.3,0.3,2.7,0.3,4.1,0.4c1.7,0.9,3.3,1.7,5,2.6c2.8,1.7,5.7,3.3,8.5,5c1.7,1.9,3.4,3.7,5.1,5.6c0.1,0.9,0.1,1.9,0.2,2.8
	c0,1,0,2.1,0,3.1c-0.8,0.8-2,1.4-2.4,2.3c-3.1,7.6-5.1,15.5-4.6,23.8c0.1,1.3-0.9,2.7-1.4,4c-0.4-0.1-0.7-0.1-1.1-0.2
	c-0.4-1.5-0.8-3-1.1-4.5c-0.3,0-0.6,0-0.9,0c-0.4,3.7-0.8,7.4-1.2,11c0.3,3.7,0.6,7.3,1,11c0.4,0,0.7-0.1,1.1-0.1
	c0.2-0.8,0.3-1.7,0.5-2.6c1.3,0.5,2.3,0.8,3.3,1.2c1.1,0.7,2,1.6,3.2,2.1c0.7,0.3,1.6-0.1,2.4-0.2c1.8,0.2,3.7,0.4,5.5,0.7
	c0.6-0.1,1.2-0.2,1.8-0.3l0.1,0l0.2-0.2l0-0.3c0.4,1,0.7,2,1.1,3l0,0c5.4,4,10.7,7.9,16.1,11.9c-0.8,0.6-1.5,1.2-2.8,2.1
	c4.5,1.7,8.6,3.2,12.6,4.8c3.3,1.8,6.6,3.7,10,5.3c0.8,0.4,2-0.4,3-0.6c-1.8-2.2-3.1-3.8-4.3-5.3c1.5-0.3,2.9-0.6,4.4-0.9
	c1.3,0.7,2.5,1.5,3.8,2.2c1.5,1,2.9,2.8,4.4,2.8c3.5,0.1,7.1-0.7,10.6-1.1c0.5,0,1,0.1,1.5,0.1c0.3,0.1,0.5,0.1,0.8,0.2
	c1.9,0.8,3.7,1.6,6.2,2.6c-1.2,0.6-1.9,1.1-3.1,1.7c1.1,0.9,2.3,1.7,3.5,2.6c-0.2,1.2-0.5,2.5-0.7,3.7c0,1.2,0,2.5,0.1,3.7l0,0
	c-0.2,0.5-0.5,1.1-0.7,1.6c0,0.3,0,0.5,0.1,0.8c-0.2,0.2-0.4,0.5-0.7,0.7c-3.9,1.8-5.6,7-3.9,11.9l0,0c-0.7,0.3-1.5,0.5-2.2,0.8
	c0,0,0,0,0,0c-0.7,1-1.5,2-2.2,3c0,0,0,0,0,0c-1,1-2,2-3,3l0,0c-0.8,0.8-2.3,1.6-2.4,2.4c-0.3,4-3.1,5.9-5.9,7.9
	c-0.7,0.3-1.4,0.6-2,0.8c-4.1,1.5-8.2,3.8-12.5,4.3c-4.6,0.6-9.8,2.4-13.9-2.1c-0.8-0.9-2.5-1-3.8-1.4c-1.8,0.3-3.6,0.5-5.4,0.8
	c-2.2,1.8-4.3,3.5-6.5,5.3c0,0,0,0,0,0c-1.4,1.1-2.8,2.1-4.1,3.2c-1.9,0.8-3.7,1.7-5.6,2.5c-0.5,0.9-1,1.7-1.5,2.6
	c-1.3-0.3-2.6-0.7-4.2-1.1c-0.3,5.1-4.7,0.1-6.4,3c0.5,0.9,1.1,2.1,1.7,3.1c1.6-0.9,2.8-1.8,4.2-2.2c0.4-0.1,1.2,1.1,1.8,1.7
	c-0.5,0.5-1.1,1-1.6,1.5c-2.3,1-4.6,3-7.1,1.4c-4.7-2.8-8.4-1.8-12.5,1.2c-1.3,0.9-4.9,0.2-6.4-1.1c-1.3-1-1-3.9-1.6-6.6
	c-4.1-1.3-5.9-5.3-2.9-9.4c-1.3-0.5-2.6-0.9-3.8-1.3c-1.1-10.5-2.2-21-3.3-31.5c-0.2-3.4-0.8-6.9-0.3-10.3c0.4-3.1,0.7-5.8-1.1-8.5
	c-0.5-4.7-1-9.5-1.5-14.2c-0.5-3-0.9-6.1-1.5-9.1c-0.9-4.8-2.2-9.5-2.8-14.3c-0.3-2.3-1-3.7-3.2-4.3c-0.2-0.1-0.4-0.2-0.6-0.2
	c-0.2-0.2-0.4-0.4-0.6-0.7c-1.6-2.7-3.2-5.5-4.9-8.2c-1-3.5-1.9-6.9-2.9-10.4c-0.7-5.3-1.4-10.5-2.2-15.8c0-3.3,0-6.5,0-9.8
	C550.3,88.4,553.8,86.2,557.3,83.9z"/>
<path stroke="#000000" stroke-miterlimit="10" d="M24.8,137.1c-0.3,0.5-0.5,0.9-0.8,1.4C24.2,138,24.5,137.6,24.8,137.1z"/>
<path stroke="#000000" stroke-miterlimit="10" d="M731.9,82.1c0.2-0.4,0.5-0.9,0.7-1.3C732.4,81.3,732.1,81.7,731.9,82.1z"/>
<path stroke="#000000" stroke-miterlimit="10" d="M438.5,95.1c-0.9,0.8-1.8,1.6-2.7,2.3C436.7,96.6,437.6,95.8,438.5,95.1z"/>
<path stroke="#000000" stroke-miterlimit="10" d="M369,152.1c-0.5-0.5-1-1-1.5-1.5C368,151.1,368.5,151.6,369,152.1z"/>
<path stroke="#000000" stroke-miterlimit="10" d="M471,129.6c-0.8,0.2-1.6,0.3-2.4,0.5C469.4,130,470.2,129.8,471,129.6z"/>
<path stroke="#000000" stroke-miterlimit="10" d="M466.4,205.4c0.2,0.3,0.5,0.6,0.7,0.9C466.9,206,466.7,205.7,466.4,205.4z"/>
<path stroke="#000000" stroke-miterlimit="10" d="M408.2,86.2c0.2-0.3,0.4-0.6,0.6-0.8C408.6,85.7,408.4,85.9,408.2,86.2z"/>
<path stroke="#000000" stroke-miterlimit="10" d="M533.4,261.1c-0.7-2.7-1.4-5.3-2.1-8.2c0.9,0,1.8,0.3,2.5-0.1
	c0.9-0.5,2.3-1.5,2.3-2.2c-0.6-3.9-0.6-7.5,2.1-10.7c0.4-0.5-0.2-2.4-0.8-3.2c-1.7-2.2-2-4-1.9-7.1c0.1-4,3.4-5.7,3.9-8.9
	c0.1-0.6,1.4-1.1,2.2-1.6c1.9-1.1,3.9-2.2,5.8-3.3c-0.1-0.3-0.2-0.7-0.3-1c-2.8-0.4-5.5-0.7-8.7-1.1c0.9-2,1.9-4,2.5-6
	c0.3-0.9,0.1-2.8-0.3-2.9c-2.6-0.7-2.3-2.9-3.2-4.7c-1.7-3.3-4.5-6-6.8-8.9c0.4-0.6,1.4-1.9,2.4-3.3c-1.6-0.5-3.1-1-4.7-1.5
	c1.2-5.2,2.4-10.5,3.6-15.7c0.5-0.9,1.1-1.8,1.6-2.7c1.8,4.8,4.4-0.9,6.5,0.6c-0.5-2.4,0.8-3.4,2.9-3.9l0.4,0.1l0.4,0
	c0.8,0.8,1.6,1.5,2.4,2.3c0.7,2,1.4,4,2.1,6c-0.4,0.6-1.4,1.5-1.3,1.7c1.3,2.5,2.9,4.8,4.3,7.3c0,1,0,2,0.1,3
	c0.5,1.6,1.7,3.5,1.2,4.8c-1.6,4.3,1.5,7.8,1.6,11.7c0,0.3,0,0.6,0,0.8c0,0.2,0,0.4,0,0.7c-0.2,0.8-0.4,1.5-0.6,2.3
	c-0.3,0.5-0.4,1.1-0.8,1.5c-0.5,0.7-1.7,1.5-1.6,2c0.9,3.1,2,6.2,3,9.2c-0.2,1.7-0.6,3.4-0.5,5c0.1,1.3,0.8,2.5,1.3,3.8
	c-0.5,4.8-1,9.6-1.5,14.4c-1-0.7-2-1.5-3-2.2c-1.5-1-3.3-0.3-4,1.5c1.2,0.2,2.5,0.5,4.6,0.9c-2.3,0.7-3.6,1.2-5.7,1.9
	c1.6,0.5,2.2,0.8,2.7,0.9c-0.4,1.8-0.8,3.5-1.2,5.1c-1.7,1.6-0.2,5.9-4.5,5.2c-0.4-0.6-0.7-1.1-1.1-1.7c-0.2,0.2-0.5,0.5-0.7,0.7
	c0.4,0.4,0.8,0.8,1.2,1.2c-0.8,0.7-1.6,1.4-2.4,2c-0.5,0.3-1,0.5-1.5,0.8c-1,0.8-2.1,1.6-3.1,2.4c-0.4,0.3-0.9,0.6-1.3,0.9
	C533.3,261,533.4,261.1,533.4,261.1z M546.7,236.4c-1.1-1.3-1.9-2.1-2.7-3c-0.8,0.8-1.6,1.5-2.4,2.3c0.9,0.8,1.6,1.8,2.6,2.3
	C544.6,238.2,545.6,237.1,546.7,236.4z M537.3,255.3c-0.2,0-0.4,0-0.5,0c0.1,0.1,0.2,0.2,0.3,0.2
	C537.1,255.4,537.2,255.3,537.3,255.3z"/>
<path stroke="#000000" stroke-miterlimit="10" d="M491.3,233.2c0.2-0.5,0.5-1,0.7-1.5C491.8,232.1,491.6,232.7,491.3,233.2z"/>
<path stroke="#000000" stroke-miterlimit="10" d="M480,258c0.2-0.3,0.4-0.6,0.6-0.9C480.4,257.4,480.2,257.7,480,258z"/>
<path stroke="#000000" stroke-miterlimit="10" d="M595.5,270.6c-0.5,0.3-1,0.5-1.5,0.8c-1.2,0-2.5,0-3.7,0c1.7-5,4.1-9.9,2.5-16.1
	c-3.6,2.6-6.8,2-9.7-1c0.5-1.2,1.1-2.7,1.6-4.1c0.2,0.3,0.3,0.5,0.5,0.8c2.2-1,4.4-1.9,6.5-3.1c1.5-0.9,2.2-1.5,4.1,0
	c1.5,1.3,4.3,1.1,6.8,1.6c-0.4,0.5-0.9,1-0.8,1c0.4,2.6,0.7,4.7,1,6.3c-1.9,1.8-3.4,3.2-4.9,4.7c0,0.4,0.1,0.9,0.1,1.3
	c3,0.4,6,0.9,9.6,1.4c-1.6,1.8-2.8,3.2-4,4.5c-0.3-0.2-0.6-0.4-0.9-0.6c0.2-0.7,0.5-1.4,0.6-1.8c-3-0.4-5.9-0.8-8.9-1.2
	c-0.3,0.3-0.5,0.6-0.8,0.8c1.1,1.1,2.2,2.1,3.3,3.2c0.5,0.5,1.3,1.1,1.4,1.7c0.1,0.5-0.7,1.1-1.1,1.7
	C596.7,271.9,596.1,271.3,595.5,270.6c0.3-0.2,0.5-0.4,0.8-0.6C596,270.2,595.8,270.4,595.5,270.6z"/>
<path stroke="#000000" stroke-miterlimit="10" d="M590.3,271.4c1.2,0,2.5,0,3.7,0C592.8,274.2,591.5,274,590.3,271.4z"/>
<path stroke="#000000" stroke-miterlimit="10" d="M597.2,296.8c-0.8,0-1.7-0.1-2.5-0.1C595.5,296.7,596.4,296.8,597.2,296.8z"/>
<path stroke="#000000" stroke-miterlimit="10" d="M605.3,248.1c0,0.2,0,0.5-0.1,0.7c-0.1-0.2-0.2-0.4-0.2-0.5
	C605,248.3,605.2,248.2,605.3,248.1z"/>
<path stroke="#000000" stroke-miterlimit="10" d="M713.2,124.3c-1.5,2-3,4.1-4.4,6.1C710.3,128.3,711.7,126.3,713.2,124.3z"/>
<path stroke="#000000" stroke-miterlimit="10" d="M716.5,88c-0.1,0.1-0.2,0.2-0.3,0.1c-0.1,0-0.2-0.1-0.3-0.2
	C716.2,88,716.3,88,716.5,88z"/>
<path stroke="#000000" stroke-miterlimit="10" d="M719.2,79.2c0.3,0,0.5-0.1,0.8-0.1C719.8,79.1,719.5,79.2,719.2,79.2z"/>
<path stroke="#000000" stroke-miterlimit="10" d="M64.3,91.1c0.3,0,0.6,0.1,1,0.1C65,91.2,64.7,91.1,64.3,91.1z"/>
<path stroke="#000000" stroke-miterlimit="10" d="M293.2,11.1c0.7,0.5,1.3,1.1,2,1.5c2.9,1.5,5.5,3.2,6.8,6.4
	c0.8,1.9,1.4,4.4,4.6,3.6c0.5-0.1,1.4,1.1,2.6,2.2c-1.4,0.2-2.3,0.3-2.9,0.4c4.2,3.9,8.4,7.7,12.5,11.5c0.3,1,0.5,1.9,1,3.6
	c-0.2,1.1-0.7,3.1-1.1,5.1c-0.8,0.9-1.9,2-2.9,3.2c-0.4,0.5-0.9,0.9-1,1.5c-0.5,2.6-0.5,5.4-1.5,7.6c-0.7,1.5-2.9,2.4-4.5,3.4
	c-0.5,0.3-1.4-0.1-1.9,0.2c-4,2.5-8.2,3.6-12.8,2.1c-2.9,2-5.8,4.8-9.1,0.4c-0.2-0.3-1.1-0.4-1.4-0.2c-1.4,1.2-2.2,0.9-3.6-0.2
	c-1.7-1.3-2.1,0-1.6,1.6c-1,0-1.9,0-2.9,0c-2.1-1.2-4.1-2.4-6.2-3.6c-0.1,0-0.2,0-0.3,0l-0.2,0.3c-1.7-1.4-3.4-2.9-5-4.3
	c-1.1-0.7-2.2-1.4-3.2-2.1c-1-1.7-2.1-3.4-3.1-5.2c-0.7-5-1.4-9.9-2.2-14.9c-0.1-0.8-0.9-1.6-1.4-2.4c-0.4-2.2-1.1-4.3-1.3-6.5
	c-0.1-2,0.4-4.1,0.6-6.1c0.7-0.6,1.5-1.2,2.1-1.9c0.6-0.7,1-1.5,1.5-2.2c0.5-0.4,1-0.8,1.5-1.2c0.5-2,1-4.1,1.5-6.1
	c0.2,0,0.6,0,0.7,0.2c4.8,5.1,4.8,5.1,10.1,0.3c0.3-0.3,0.9-0.4,1.3-0.6c3.1,3.8,6.6,5.1,11.1,2.3c2.5,0,5.1,0,7.6,0
	C291.3,11.1,292.3,11.1,293.2,11.1z"/>
<path stroke="#000000" stroke-miterlimit="10" d="M231.5,35.9c0.8,2.2,1.7,4.5,2.5,6.7c1,1.8,2,3.6,3.1,5.4
	c-0.3,0.3-0.6,0.5-0.9,0.8c-1.7-1.1-3.4-2.1-5.1-3.2c-0.9-0.8-1.8-1.6-2.6-2.5c-1.9-2.2-1-4.3,0.3-6.4c0.1-0.5,0.1-1.1,0.2-1.6
	C229.7,35.4,230.6,35.6,231.5,35.9z"/>
<path stroke="#000000" stroke-miterlimit="10" d="M99.8,125.2c0-0.3,0-0.6,0-0.9c0-0.2,0-0.4,0-0.6c0.1-0.3,0.3-0.6,0.4-0.9
	c0.1-1,0.2-2,0.3-3c1.6-5,3.5-10,4.7-15.2c1-4.4,1-9.1,1.8-13.6c0.9-5,2.2-9.8,3.4-14.7c0.3-0.3,0.5-0.6,0.8-0.9
	c1.9-2.8,3.9-5.6,5.7-8.5c0.5-0.8,0.6-1.7,0.9-2.6c2.4-2.9,4.9-5.3,9.2-4.7c1.4,0.2,2.9-0.9,4.4-1.4c2.5,0,5.1,0.3,7.6,0
	c4.2-0.5,6.3,1.2,7.5,5.1c0.6,1.9,1.9,3.7,2.9,5.5c0.5,1.5,0.9,3,1.4,4.5c0,0.2,0,0.5,0.1,0.7c0,0.3,0,0.5,0.1,0.7
	c0.2,0.5,0.4,1,0.6,1.4c0.2,0.8,0.5,1.6,0.7,2.3c-0.5,0.3-1.6,0.8-1.5,0.9c0.7,3,1.6,5.9,2.4,8.8c1.3,2.5,2.5,5,3.8,7.5
	c0.4,0.5,0.9,1.1,1.3,1.6c0,0,0,0,0,0c0.1,2.9,1.5,4.7,4.4,5.2c0.6,1.2,1,2.4,1.8,3.4c0.6,0.8,1.6,1.6,2.4,1.6c0.7,0,1.3-1.2,2-1.9
	c1.5-1.3,2.9-2.6,4.4-3.9c-0.1-1.5-0.2-3-0.4-4.5c0.3-0.2,0.6-0.3,1-0.5c2.5,3.9,5,7.9,7.5,11.8c0.5,0.7,1.1,1.5,1.6,2.2
	c0.8,1,1.6,2.1,2.4,3.1c0.1,1.1-0.2,2.3,0.3,3.3c2.1,4.6,3.6,9.6,8,12.8c0.5,0.3,0.6,1.1,1,1.5c1.8,2.4,3.7,4.7,5.5,7
	c0.1,0.8,0.1,1.5,0.2,2.3c0.8,6.4,6,9.8,9.7,14.2c0.4,0.4,1,0.8,1.3,1.3c1.3,2.3,2.4,4.7,3.8,6.8c1.3,1.9,2.9,2.2,4.6-0.2
	c-1.4-1.1-2.7-2-3.8-2.8c0-1.4,0-2.6,0-3.9c1.2,0.5,2.5,1.1,3.7,1.6c0.9,1,1.6,2.3,2.8,2.9c2.8,1.4,6.8,4.3,8.3,3.3
	c3.3-2.1,5.3-0.8,7.8,0.6c1.5,1.9,3.1,3.8,4.9,5.9c0.7-1.2,0.9-1.4,1-1.6c0.5-0.9,0.9-1.7,1.3-2.6c0.3,0.8,0.4,1.6,0.9,2.3
	c0.1,0.2,1.1-0.2,1.7-0.4c0.3,0.1,0.5,0.1,0.8,0.2c-0.5,1-1.1,2-1.7,3.1c2.3,2.8,2.3,2.8,0.1,5.2c-3.4,0.8-5.1,3.5-6,6.4
	c-1.5,5.4-5.8,8.8-11.4,9.4c-3.9,0.4-8.7-1.3-11.1,4c-0.4,0.8-1.8,1.2-2.7,1.7c-1.4-1.5-2.6-2.8-3.9-4.1c-2.2,1.3-6.3-2.1-7.4,2.7
	c-0.6-0.4-0.9-0.7-1.2-0.7c-1-0.2-1.9-0.2-2.9-0.3c0.1,0.4,0.3,0.7,0.4,1.1c-1.8,0.7-3.5,1.9-5.3,2.1c-2.2,0.3-4.4-0.3-6.6-0.5
	c-3.8-0.3-7.4,2.1-11.4,0.9c-0.4-0.1-1.5,1.7-2.8,3.3c-3.4,0.7-7.9,1.7-12.8,2.8c0.7,0.5,1.1,0.8,1.4,1c1.1,0.7,3.1,1.4,3.2,2.2
	c0.3,2.2-1.5,2.3-3.2,2.1c-0.3,0-0.7,0.7-1,1c-0.3,1.4-0.5,2.9-0.8,4.3c-4.8-1.6-5.1-1.5-5.6,1.8c0.1,0.5,0.2,1.1,0.3,1.6
	c-3.1-0.8-5.6,0.4-8.1,2.2c-4,2.9-8.4,5.1-13.6,5.3c-1.3-0.5-2.6-1-3.8-1.5c-1.9-1.3-3.8-2.6-5.7-3.8c-2.4-4.5-5-8.8-7-13.5
	c-2.1-4.8-3.5-9.9-5.2-14.9c-1.2-4.8-2.5-9.5-3.7-14.3c-0.6-4-1.2-8-1.9-11.9c-0.9-4-1.8-7.9-2.7-11.9c-1.1-4.3-2.3-8.5-3.4-12.8
	c-0.6-2.2-0.9-4.5-1.3-6.8C100.1,132.1,100,128.6,99.8,125.2z M216.2,169.5c0.2,1.3,0.1,2.5,0.6,3.2c1.2,1.7,2.7,3.2,4.2,4.7
	c3.9,3.7,4.4,3.6,6.9-1.6C224.4,173.8,220.7,171.9,216.2,169.5z M232.3,169.6c-0.9-0.8-1.6-1.8-1.9-1.7c-1.7,0.6-3.4,1.4-5,2.3
	c-0.1,0.1,0.3,1.7,0.8,2c1.6,0.8,3.3,1.3,6,2.3c-1.1-1.9-1.7-2.9-2.3-4C230.5,170.2,231.2,170,232.3,169.6z"/>
<path stroke="#000000" stroke-miterlimit="10" d="M349.4,117.7c0.3,1,0.7,2,1,2.9c1.2,4.7,2.4,9.4,3.6,14.1c0,0.2,0,0.5,0.1,0.7
	c0.1,3.5,0.1,7.1,0.2,10.6c-0.7,1.8-1,4.3-2.3,5.2c-5.2,3.5-7.6,8.9-10,14.3c-0.5,1.2-1.8,2-2.7,3c-0.3,0.3-0.9,0.4-1.1,0.7
	c-1.4,2.8-2.7,5.7-4.1,8.6c2.9,3.7,2.9,3.7-1.6,6.4c-0.6,0.3-0.9,1.1-1.2,1.7c-2,3.5-4,6.9-5.9,10.5c-0.2,0.4-0.2,1.4,0.2,1.7
	c2.2,1.7,1.2,3.7,0.7,5.6c-0.6-0.4-1.2-0.9-2.3-1.6c0.2,1.6,0.7,2.9,0.4,3.9c-1,3.5-2.4,6.9-3.4,10.5c-2,6.7-4.5,13-11.1,16.6
	c-2.4-1.5-6.1-0.3-7.6-4.1c-0.6-1.5-3.8-3.1-5.6-2.9c-5.9,0.5-9.7-3.5-14.4-5.7c-1.6-1.7-3.1-3.5-4.7-5.2c-1.1-1.1-2.4-2.1-4.3-3.6
	c-4.9,7.5-10,15.2-15.1,23c-0.2,0-0.5,0.1-0.7,0.1c-0.3-0.3-0.5-0.5-0.8-0.8c-0.4-0.5-0.9-0.9-1.3-1.4c-0.3,0.5-0.6,0.9-1,1.4
	c-0.4,0.2-0.8,0.5-1.1,0.7c0.1,0.1,0.3,0.3,0.4,0.4c0.2-0.4,0.5-0.8,0.7-1.1c0.7,0,1.5,0,2.2,0c0.3,0.3,0.5,0.5,0.8,0.8
	c-0.5,1-1,2-1.6,3.1c-1.2,2-2.5,4-3.7,5.9c-0.3,0-0.5,0-0.8-0.1c-1.5,0.2-3.1,0.4-5,0.6c-0.5-1.2-1.2-3-2.1-5.2
	c0.6-0.5,1.6-1.2,2.1-1.5c-1.6-2.7-3-5.2-4.5-7.6c-1.8,1.8-3,3.1-4.3,4.4c-0.1-1.3-0.3-2.5-0.5-4c-1.1,0.1-2.5,0.1-3.9,0.2
	c1.9-2.6,3.9-5.2,5.8-7.8c1.4-1.8,2.8-3.6,4.2-5.3c1.6-2.2,3.2-4.5,4.8-6.7c2.9-4,5.9-8,8.8-12c2.3-3,4.5-6,6.8-9
	c3.2-4.8,6.5-9.5,9.7-14.3c0.5-0.7,1-1.5,1.5-2.2c0.5-0.8,1.2-1.5,1.4-2.3c0.8-4.3-2.9-5.8-5.2-8.2c-0.5-0.3-0.9-0.7-1.4-1
	c-2.8-4.9-6.3-9.1-11.3-11.9c-1.5-1-3-1.9-4.5-2.9c-0.6-0.9-1.3-1.8-1.7-2.7c-1.3-3-4.1-5.5-2.8-9.2c0.4-2,0.9-4.1,1.3-6.1
	c0-0.4,0-0.9,0-1.3c2.5-0.5,5.1-1,7.6-1.6c1.5-0.1,3-0.2,4.4-0.2c3.5,0.6,7,1.2,10.5,1.7c1.7,0.5,3.5,1.5,5.1,1.4
	c6.3-0.5,12.5-1.1,18.7-2.2c4-0.7,8.2-1.7,10.1-6.2c0.7-1.7,1.3-3.4,2-5.1c2.8-6,5.5-12.1,8.3-18.1c1.8-3.2,3.7-6.4,5.4-9.7
	c1.9-3.6,4.8-5.5,8.9-5.4c3.5,1.7,0.6,4.6,1.4,6.9c-0.2,1.1-0.4,2.1-0.6,3.2c-0.3,1.2-0.6,2.5-0.9,3.7c-2.7,4.9-5.5,9.9-8.3,14.8
	c-1.6,2.7-3.3,5.3-5.3,8.5c2.4-0.3,4.3-0.6,6.1-0.9c2.5-1.2,5-2.4,7.5-3.7c1-3.2,2.3-6.2,5.4-7.9c0.2-0.1,0.4-0.1,0.6-0.2
	c0.5,0,1,0,1.5-0.1c1,0.2,2,0.4,3,0.7c0.4,0.3,0.8,0.6,1.2,0.9c1.6,2.7,3.2,5.4,4.8,8.1C348.5,116.6,349,117.1,349.4,117.7
	C349.4,117.7,349.4,117.7,349.4,117.7z M315.7,154c-0.5-0.2-0.9-0.4-1.4-0.6c-14,12-21.7,28.4-31,45c4.4-1.3,8.1-2,11.5-3.4
	c2-0.9,4.1-2.6,5.1-4.6c3.5-6.2,6.8-12.5,9.6-19C312.1,165.7,313.7,159.8,315.7,154z"/>
<path stroke="#000000" stroke-miterlimit="10" d="M231.3,232.2c0.6-0.5,1.2-1,1.8-1.5C232.5,231.2,231.9,231.7,231.3,232.2z"/>
<path stroke="#000000" stroke-miterlimit="10" d="M218.2,230.8c2.2,0.8,4.4,1.5,6.7,2.3c-1.1,0.7-1,0.5-2.8,0.1
	c-0.7-0.2-1.7,0.6-2.6,1c-1.1,0.5-2.2,1-3.4,1.5c0.1-2.2,0.2-3.8,0.3-5.5C217.1,230.4,217.7,230.6,218.2,230.8z"/>
<path stroke="#000000" stroke-miterlimit="10" d="M608.3,242.1c-0.3,0-0.5,0-0.8,0c-0.6-0.6-1.4-1.8-1.8-1.7
	c-1.3,0.4-2.5,1.3-4.2,2.2c-0.6-1-1.2-2.2-1.7-3.1c1.7-2.9,6.1,2.1,6.4-3c1.6,0.4,2.9,0.8,4.2,1.1c0.9,0,1.9,0,2.8,0.1
	c-0.2,1.7-0.4,3.5-0.6,5.2c-0.5,0-0.9,0.1-1.4,0.1C610.3,242.7,609.3,242.4,608.3,242.1z"/>
<path stroke="#000000" stroke-miterlimit="10" d="M628.3,224.1c-2.2,1.8-4.3,3.5-6.5,5.3C623.9,227.6,626.1,225.9,628.3,224.1z"/>
<path stroke="#000000" stroke-miterlimit="10" d="M677.3,208.4c-1,1-2,2-3,3C675.3,210.4,676.3,209.4,677.3,208.4z"/>
<path stroke="#000000" stroke-miterlimit="10" d="M679.5,205.3c-0.7,1-1.5,2-2.2,3C678,207.4,678.8,206.4,679.5,205.3z"/>
<path stroke="#000000" stroke-miterlimit="10" d="M619.9,150.7c0.4,1,0.7,2,1.1,3C620.6,152.7,620.2,151.7,619.9,150.7z"/>
<path stroke="#000000" stroke-miterlimit="10" d="M681.7,204.6c-0.7,0.3-1.5,0.5-2.2,0.8C680.2,205.1,681,204.8,681.7,204.6z"/>
<path stroke="#000000" stroke-miterlimit="10" d="M687,189.6c-0.2,0.5-0.5,1.1-0.7,1.6C686.5,190.7,686.8,190.1,687,189.6z"/>
<path stroke="#000000" stroke-miterlimit="10" d="M617.8,151.4c0.6-0.1,1.2-0.2,1.8-0.3C619,151.2,618.4,151.3,617.8,151.4z"/>
<path stroke="#000000" stroke-miterlimit="10" d="M557.9,135.7c-0.2-0.1-0.4-0.2-0.6-0.2C557.5,135.5,557.7,135.6,557.9,135.7z"/>
<path stroke="#000000" stroke-miterlimit="10" d="M545.2,21.6c0.3,1.5,0.6,3,0.9,4.5c-1.5-0.5-3-1-4.6-1.5l0,0
	c-0.2-0.9-0.3-1.8-0.5-2.7c-0.2-1-0.4-2-0.8-4.1c0.1-0.1,0.7-1.1,1.3-2.1C545.3,16.1,544.1,19.5,545.2,21.6z"/>
<path stroke="#000000" stroke-miterlimit="10" d="M537.1,22.4c0.9,1.8,1.8,3.7,2.7,5.6c1.4-0.5,2.3-0.9,3.7-1.4
	c-0.8,1.4-1.3,2.3-1.8,3.3c0.5,1.5,0.9,2.9,1.4,4.4c0,0.3,0.1,0.7,0.1,1c1.2,4.2,2.5,8.4,3.7,12.6c-0.8,3.5-1.4,7.1-2.5,10.6
	c-0.5,1.4-2,3.1-3.4,3.6c-3.3,1-4.6,3.7-6.3,6.2c-0.8,0.5-1.6,1.3-2.4,1.4c-4.7,0.6-9.3,1-14,1.5c-3.2-0.6-6.5-1.1-9.7-1.7
	c-4.8-3.5-10.5-6.2-12-12.9c-0.5-2-1.4-4-2.6-5.6c-0.7-1-0.6-4.1-3.4-2.2c-0.1,0-0.6-0.5-0.8-0.9c-2-2.3-3.9-4.6-5.9-6.9
	c-0.5-0.5-1-1-1.5-1.5c-1.5-3-3-6-4.5-9c1.1-3.2,0.2-7.2,3.8-9.5c0.7-0.4,0.7-1.9,1.2-3.4c1.2,1,1.9,1.8,2.8,2.3
	c0.7,0.3,2.4,0.5,2.5,0.1c1.5-3,4.1-2.1,6.5-2.1c0.9,0,1.9,0.1,2.6-0.2c2.6-1.2,4.4-1.4,6.8,1.1c1.5,1.6,4.8,1.3,7.3,2.1
	c4,1.2,7.8,0.1,11.7-0.5c2.5-0.4,5.3,0.4,7.9,0.8C532.9,21.4,535,22,537.1,22.4z"/>
<path stroke="#000000" stroke-miterlimit="10" d="M286.5,0.4c1.1-0.1,2.1-0.3,3.2-0.4c-0.8,3.9,3.6,5.1,4.3,8.2
	C292,7.5,290,6.8,288,6C287.5,4.2,287,2.3,286.5,0.4z"/>
<path stroke="#000000" stroke-miterlimit="10" d="M446.2,64.9c1,0.3,2.1,0.5,3.6,0.9c-0.3-1.5-0.6-2.6-0.8-3.7c0-0.5,0-1,0-1.5
	c0-0.5,0-1,0-1.5c1.5-0.2,3.2-0.1,4.6-0.6c2.1-0.9,4-2.4,6.1-3.3c1.1-0.4,2.5,0.3,3.8,0.2c0.8,0,1.5-0.6,2.2-0.9
	c-0.1-0.3-0.3-0.7-0.4-1c1.6-0.3,3.3-0.6,4.9-0.9c0.4,0.1,0.7,0.1,1.1,0.2c-0.2-0.2-0.5-0.5-0.7-0.7c1.2-0.1,2.5-0.5,3.7-0.3
	c3.4,0.5,6.8,1.3,10.2,2c1,0.5,2,1.1,3,1.6c0.2,0.5,0.4,1,0.6,1.5c-2.4,0.2-4.9,0.4-7.3,0.7c-0.1,0.3-0.2,0.6-0.2,1
	c2.5,0.9,5.1,1.8,7.6,2.7c2,0.9,4,1.8,6,2.7c0.7,1.3,1.3,2.5,2,3.8c-0.8,0.3-1.4,0.6-1.9,0.8c2.6,2.2,5.1,4.3,7.5,6.4
	c0,1.3,0,2.6-0.1,3.9c0.3,2,0.6,4,0.9,6c-1,3.4-0.4,7.7-5.1,9c-2.7,0.7-4.1,2.1-2.5,5.8c-1.6-1.2-2.5-1.8-3.4-2.6
	c0,1.6,0.5,3.2-0.1,4.1c-0.9,1.4-2.6,2.2-4,3.3c-2-0.1-4-0.1-6-0.2c-1.7-1.3-3.2-2.9-5-4c-2.5-1.4-5.2-2.4-7.8-3.5c0,0,0,0,0,0
	c-0.3-0.3-0.5-0.6-0.8-0.9c-0.8-1-1.5-2.6-2.5-3.1c-5.3-2.4-6.4-8.3-10.2-11.8c0-0.3-0.1-0.6-0.1-0.8c-1.1-2.4-2.1-4.9-3.4-7.1
	C450,70.1,448,67.6,446.2,64.9z"/>
<path stroke="#000000" stroke-miterlimit="10" d="M362.5,93.8c0,0.2-0.1,0.4-0.1,0.5c-0.5,1-1,2.1-1.5,3.1c0,0,0,0,0,0
	c-0.5,0.5-1,1-1.5,1.5c0,0,0,0,0,0c-2.3,0.7-4.5,1.5-6.8,2.2c-4.9,0.2-5.7-4.2-7.9-7.1c0-0.3,0-0.7-0.1-1c-0.1-0.3-0.3-0.6-0.4-0.9
	c-0.2-0.3-0.4-0.5-0.6-0.8c-0.3-6.5,3.6-10.4,8.7-13.3c1-0.5,3.1-0.6,3.7,0.1c2.5,2.8,4.6,5.9,6.9,8.8c0,0.7,0.1,1.4,0.1,2.1
	c0,0.8,0,1.5,0,2.3C362.8,92.2,362.6,93,362.5,93.8z"/>
<path stroke="#000000" stroke-miterlimit="10" d="M365.4,83c-0.5-4.7-0.7-9.1,3.7-12.5c4.9-3.7,11.8-2.1,14.5,3.6c0,0.7,0,1.4,0,2.1
	c0,0.8-0.1,1.5-0.1,2.3c-0.4,1.3-0.9,2.5-1.3,3.8c-0.2,0.3-0.3,0.6-0.5,0.9c-0.5,0.7-1,1.4-1.5,2.2c-2.5,0.9-4.9,1.9-7.4,2.8
	C370.4,86.5,367.9,84.7,365.4,83z"/>
<path stroke="#000000" stroke-miterlimit="10" d="M384.1,74.8c-0.1,0.5-0.3,0.9-0.4,1.4c0-0.7,0-1.4,0-2.1
	C383.8,74.4,384,74.6,384.1,74.8z"/>
<path stroke="#000000" stroke-miterlimit="10" d="M449,59.1c0,0.5,0,1,0,1.5C449,60.1,449,59.6,449,59.1z"/>
<path stroke="#000000" stroke-miterlimit="10" d="M513.8,206.2c-2.8,0-5.5-0.1-8.3-0.1c-4.4-4.8-8.8-9.6-13.2-14.4
	c-4-7.9-8-15.9-12.1-23.8c-0.5-1-1.7-1.7-2.5-2.6c-0.1-1.9-0.8-4.1-0.2-5.8c1.8-4.8,4.1-9.4,6.2-14.1c0-0.3,0-0.6,0-0.8
	c0-0.4,0-0.9,0.1-1.3c4.5-2,9-3.9,13.4-5.9c1-0.4,2-0.8,3-1.2c3,2.1,6.1,4.1,9.1,6.2c-0.7,0.5-1.4,1.1-2.3,1.7
	c3.8,3.7,7.8,6.4,12.8,7.3c0.5,0.3,0.9,0.7,1.4,1c2,2.7,4,5.4,6.1,8.1c-0.8,0.1-1.7,0.6-2.3,0.3c-0.8-0.3-1.3-1.3-1.9-1.9
	c-0.3,0.2-0.7,0.5-1,0.7c0.7,1.4,1.8,2.8,2.1,4.3c1,4.4,1.7,8.9,2.5,13.3c-0.3,1.5-0.6,3-0.9,4.6c-0.3,0-0.4,0.2-0.5,0.5
	c0,0-0.1,0.1-0.1,0.1c-0.3,0.1-0.9,0.1-1,0.3c-1.4,3.8-2.7,7.7-4,11.6C518,198.2,515.9,202.2,513.8,206.2z"/>
<path stroke="#000000" stroke-miterlimit="10" d="M477.6,203.5c2.3,2.1,4.5,4.2,6.8,6.3c-2.9,3-3.8-1.3-5.8-1.6
	c-0.2-0.6-0.1-1.4-0.5-1.7c-2.3-1.7-4.7-3.4-7.8-5.6c1.7-0.3,2.6-0.5,3.6-0.7C475.1,201.3,476.4,202.4,477.6,203.5z"/>
<path stroke="#000000" stroke-miterlimit="10" d="M477.8,210.5c-0.3,0.6-0.5,1.2-0.8,1.7c-1.3-0.9-2.6-1.8-3.9-2.7
	c0.1-0.2,0.2-0.3,0.4-0.5C475,209.5,476.4,210,477.8,210.5z"/>
<path stroke="#000000" stroke-miterlimit="10" d="M337.5,269.8c-0.6-0.2-1.1-0.4-1.7-0.6c-0.4-1-0.6-2-1.2-2.8
	c-1.9-2.4-3.8-4.7-5.8-7c-1.6-1.8-3.2-3.6-4.8-5.4c-1.1-0.5-2.2-1.1-3.3-1.6c-1.9-1.2-3.7-2.4-5.6-3.6c-0.7-0.8-1.4-1.5-2.2-2.3
	c0.2-1.4,0.3-2.8,0.5-4.1c0.5-1.1,1.1-2.3,1.6-3.4c3.5-6.6,7.1-13.1,10.6-19.7c0.2-0.4,0.4-0.9,0.6-1.3c3.3-5.3,6.5-10.6,9.8-15.9
	c0.2-0.6,0.5-1.3,0.7-1.9c0.1-0.2,0.1-0.4,0.1-0.6c2.9-4.9,5.8-9.8,8.7-14.8c1-0.1,2.2,0,2.9-0.5c1.3-1,2.3-2.4,3.5-3.7
	c1,0,1.9,0,2.9,0c0.5,0.5,0.9,1.3,1.5,1.4c3.8,0.7,7.5,1.3,11.3,2c-1,1-1.9,2.1-2.9,3.1c0.1,0.4,0.2,0.8,0.4,1.2
	c1.6-0.4,3.2-0.7,5.7-1.3c-0.9,1.2-1.4,1.9-1.8,2.6c-0.3,0.7-0.4,1.5-0.6,2.3c0,0.5,0.1,1,0.1,1.5c-0.1,0.8-0.2,1.7-0.3,2.8
	c1.1,0.3,2.4,0.7,3.6,1.1c0,0.4,0.1,0.8,0.2,1.2c0,0.3,0.1,0.7,0.1,1c0,0,0,0,0,0c0.2,0.3,0.3,0.6,0.5,0.8c0.3,1.5,0.7,3,1,4.5
	c-0.7,0.2-1.7,0.1-2,0.6c-0.6,1.1-0.8,2.4-1.1,3.3c1.4,2.1,2.8,4.2,4.2,6.3c0,2.6-0.1,5.3-0.1,7.9c-0.6,2.9-1.3,5.7-1.6,8.6
	c-0.1,1.4,0.7,2.9,1.4,5.2c-1.2,2.9-2.9,6.7-4.3,10.6c-0.4,1.1,0.2,2.6,0.3,4c0,0,0,0,0,0c-0.1,0.2-0.1,0.4,0,0.6
	c-0.1,0.2-0.1,0.5-0.1,0.7c-1.4,2.2-2.9,4.4-4.3,6.7c-0.3,0.3-0.5,0.5-0.8,0.8c-0.2,0.2-0.5,0.5-0.7,0.7c-0.3,0.3-0.5,0.6-0.8,0.9
	c0,0,0-0.1,0-0.1c-0.2,0.1-0.5,0.1-0.7,0.2c-0.5,0.4-1,0.8-1.5,1.3c-4.5,2.3-8.9,4.7-13.4,7c-1,0.4-2,0.8-2.9,1.2
	C342.6,270.7,340.1,270.3,337.5,269.8z"/>
<path stroke="#000000" stroke-miterlimit="10" d="M367.5,182.2c-0.8-1.8-1.5-3.7-2.4-6c1,0.3,2,0.6,3.1,0.8
	C369,178.8,371.3,180.9,367.5,182.2z"/>
<path stroke="#000000" stroke-miterlimit="10" d="M461.2,185.2c0,0.2,0,0.4,0.1,0.6c0.4,0.8,0.8,1.7,1.3,2.5c-0.3,0.2-0.7,0.4-1,0.6
	c-0.6-1.3-1.2-2.6-1.8-3.9C460.3,185.1,460.7,185.2,461.2,185.2z"/>
<path stroke="#000000" stroke-miterlimit="10" d="M481.5,230.9c0.1-0.1,0.1-0.2,0.2-0.3C481.6,230.7,481.5,230.8,481.5,230.9
	C481.5,230.8,481.5,230.9,481.5,230.9z"/>
<path stroke="#000000" stroke-miterlimit="10" d="M463.7,151.3c0.2,0,0.4-0.2,0.5-0.1c0.2,0.1,0.3,0.4,0.4,0.6
	c-0.2,0-0.5,0.2-0.7,0.1C463.8,151.8,463.8,151.5,463.7,151.3z"/>
<path stroke="#000000" stroke-miterlimit="10" d="M372,199.4c0-0.3-0.1-0.6-0.1-1C371.9,198.7,371.9,199,372,199.4z"/>
<path stroke="#000000" stroke-miterlimit="10" d="M372.4,200.2c-0.2-0.3-0.3-0.6-0.5-0.8C372.1,199.7,372.3,199.9,372.4,200.2z"/>
<path stroke="#000000" stroke-miterlimit="10" d="M359.3,98.9c0.5-0.5,1-1,1.5-1.5C360.3,97.9,359.8,98.4,359.3,98.9z"/>
<path stroke="#000000" stroke-miterlimit="10" d="M549.8,248.9c-1,0.2-2,0.4-3.1,0.6c0.4-1.7,0.8-3.3,1.2-5.1
	c-0.5-0.2-1.1-0.4-2.7-0.9c2.2-0.7,3.5-1.1,5.7-1.9c-2-0.4-3.3-0.6-4.6-0.9c0.7-1.8,2.5-2.5,4-1.5c1,0.7,2,1.4,3,2.2
	c0.2,0.1,0.5,0.2,0.7,0.3c0,0,0,0.3,0,0.3c0.4,2.3-0.9,2.6-2.7,2.4c-0.3,0.3-0.6,0.6-0.9,0.9c0,0.2,0,0.4-0.1,0.6
	c-0.4,0.3-0.8,0.6-1.1,0.9c0.4,0.2,0.8,0.4,1.1,0.6C550.3,247.9,550,248.4,549.8,248.9z"/>
<path stroke="#000000" stroke-miterlimit="10" d="M557.2,215c-1,1-2,2-3,3.1c-1-3.1-2.2-6.1-3-9.2c-0.1-0.5,1.1-1.3,1.6-2
	c0.3-0.5,0.5-1,0.8-1.5c2.9,2.3,2.3,5.2,1.5,8.2c-0.1,0.1-0.2,0.2-0.3,0.3c0.1-0.1,0.2-0.2,0.3-0.3C555.8,214,556.5,214.5,557.2,215
	z"/>
<path stroke="#000000" stroke-miterlimit="10" d="M546.7,236.4c-1.1,0.8-2.1,1.8-2.5,1.6c-1-0.5-1.8-1.5-2.6-2.3
	c0.8-0.8,1.6-1.5,2.4-2.3C544.8,234.2,545.5,235.1,546.7,236.4z"/>
<path stroke="#000000" stroke-miterlimit="10" d="M542.3,254.7c-0.2,0.1-0.4,0.2-0.7,0.2c-0.4-0.4-0.8-0.8-1.2-1.2
	c0.2-0.2,0.5-0.5,0.7-0.7C541.5,253.6,541.9,254.1,542.3,254.7z"/>
<path stroke="#000000" stroke-miterlimit="10" d="M539.2,257c-0.5,0.3-1,0.5-1.5,0.8C538.2,257.5,538.7,257.2,539.2,257z"/>
<path stroke="#000000" stroke-miterlimit="10" d="M537.3,255.3c-0.1,0.1-0.2,0.2-0.3,0.1c-0.1,0-0.2-0.1-0.3-0.2
	C536.9,255.2,537.1,255.2,537.3,255.3z"/>
<path stroke="#000000" stroke-miterlimit="10" d="M534.6,260.1c-0.4,0.3-0.9,0.6-1.3,0.9C533.8,260.7,534.2,260.4,534.6,260.1z"/>
<path stroke="#000000" stroke-miterlimit="10" d="M554.2,201.6c0,0.3,0,0.6,0,0.8C554.2,202.1,554.2,201.8,554.2,201.6z"/>
<path stroke="#000000" stroke-miterlimit="10" d="M505.5,212.8c0.1-0.1,0.1-0.2,0.2-0.3C505.6,212.6,505.6,212.8,505.5,212.8
	C505.5,212.9,505.5,212.8,505.5,212.8z"/>
<path stroke="#000000" stroke-miterlimit="10" d="M525.2,182.1c0-0.3,0.2-0.4,0.5-0.5C525.5,181.9,525.4,182,525.2,182.1z"/>
<path stroke="#000000" stroke-miterlimit="10" d="M595.5,270.6c0.3-0.2,0.5-0.4,0.8-0.6C596,270.2,595.8,270.4,595.5,270.6
	C595.5,270.6,595.5,270.6,595.5,270.6z"/>
<path stroke="#000000" stroke-miterlimit="10" d="M611.3,242.9c0,0.2-0.1,0.4-0.1,0.7c-0.5,0.6-0.9,1.2-1.4,1.7
	c-0.3-0.2-0.6-0.4-0.9-0.6c-0.2-0.9-0.4-1.7-0.5-2.6C609.3,242.4,610.3,242.7,611.3,242.9z"/>
<path stroke="#000000" stroke-miterlimit="10" d="M648,154.5c-2.5,0.2-5,0.5-7.6,0.7c-1.5-0.8-3.1-1.6-4.6-2.3
	c-3.9-6.8-7.9-13.5-11.8-20.3c-0.2-0.3-0.4-0.7-0.7-1c-0.2-0.2-0.5-0.4-0.7-0.6c0.9-1.1,1.8-2.2,2.8-3.4c-0.3-0.7-0.8-1.9-1.3-3
	c1.3,0.3,2.6,0.5,3.6,0.7c2.3-7.1,8.6-9.1,14.3-11.8c4.7-0.7,8.8-0.8,12.8,3c2.6,2.5,6.7,3.1,9.8,5.2c3.1,2,5.7,4.7,8.5,7
	c0.4,2.5,0.8,5.1,1.2,7.6c-2.3,4.3-4.4,8.8-10.3,9.2c-0.4,0-0.8,0.5-1.1,0.8c-3.2,4.4-6.5,8.3-12.9,6.7
	C649.5,153,648.7,154,648,154.5z"/>
<path stroke="#000000" stroke-miterlimit="10" d="M541.5,24.6c0,0.1-0.1,0.2-0.1,0.2C541.4,24.7,541.5,24.7,541.5,24.6
	C541.5,24.6,541.5,24.6,541.5,24.6z"/>
<path stroke="#000000" stroke-miterlimit="10" d="M33,240.6c0.1-0.1,0.1-0.2,0.2-0.3C33.1,240.4,33,240.5,33,240.6
	C33,240.6,33,240.6,33,240.6z"/>
<path stroke="#000000" stroke-miterlimit="10" d="M100.2,122.8c-0.1,0.3-0.3,0.6-0.4,0.9C99.9,123.4,100.1,123.1,100.2,122.8z"/>
<path stroke="#000000" stroke-miterlimit="10" d="M269.1,61.4c0,0-0.4,0-0.4,0C268.9,61.4,269,61.4,269.1,61.4z"/>
<path stroke="#000000" stroke-miterlimit="10" d="M253.5,35.1c0.1,0.1,0.2,0.1,0.3,0.2C253.7,35.2,253.6,35.2,253.5,35.1
	C253.5,35.1,253.5,35.1,253.5,35.1z"/>
<path stroke="#000000" stroke-miterlimit="10" d="M162.7,212c0.3-0.4,0.7-1.1,1-1c1.7,0.1,3.6,0.1,3.2-2.1c-0.1-0.9-2.1-1.5-3.2-2.2
	c-0.4-0.2-0.7-0.5-1.4-1c5-1.1,9.4-2.1,12.8-2.8c1.3-1.6,2.3-3.4,2.8-3.3c4,1.2,7.6-1.1,11.4-0.9c2.2,0.1,4.5,0.7,6.6,0.5
	c1.8-0.2,3.5-1.4,5.3-2.1c-0.1-0.4-0.3-0.7-0.4-1.1c1,0.1,1.9,0.2,2.9,0.3c0.3,0.1,0.6,0.4,1.2,0.7c1.2-4.8,5.2-1.4,7.4-2.7
	c1.3,1.3,2.5,2.6,3.9,4.1c1-0.6,2.4-0.9,2.7-1.7c2.3-5.3,7.2-3.6,11.1-4c5.7-0.6,10-4,11.4-9.4c0.8-2.9,2.6-5.6,6-6.4
	c-0.1,0.5-0.2,1-0.3,1.5c-0.1,0.3-0.3,0.5-0.4,0.8c-1.2,3.2-2.4,6.4-3.8,9.5c-0.7,1.5-1.8,2.7-3,4.4c-0.2-0.4,0.3,0.2,0.2,0.4
	c-0.9,2.3-5.3,0.3-5.2,4.1c-0.6,0-1.1,0-2,0c0.6,1,1,1.7,1.5,2.5c-0.1,0.3-0.2,0.6-0.4,1c-1.6-0.4-3.1-0.7-4.7-1.1l0,0
	c-0.3-0.3-0.5-0.5-0.8-0.8c-1.4-0.5-2.8-1.7-4.1-1.5c-3.8,0.4-7.5,1.3-11.5,2c1.4,1.7,2.7,3.1,4,4.6c-0.3,0.3-0.5,0.6-0.8,0.9
	c-2.8-1.8-5.6-3.7-8.5-5.5c-1-0.6-2.3-1.1-3.4-1c-1.5,0.2-2.8,1-4.2,1.6c0.5,0.6,1.5,1.7,2.6,2.8c-0.1,0.4-0.2,0.8-0.3,1.2
	c-3.1-0.4-6.3-0.8-9.4-1.2c-1.2-0.1-2.3-0.1-3.5-0.2c0,0.4,0,0.7,0,1.1c5.3,1.2,5.5,1.5,4,5.7c-0.8,0.2-1.5,0.5-2.3,0.7
	c-1.4-0.1-2.8-0.2-4.3-0.4c0.2-1.1,0.3-2.1,0.4-2.8c-3.4-0.6-6.5-1.1-9.6-1.6c-0.1-0.3-0.3-0.5-0.4-0.8c-0.1,0.3-0.2,0.6-0.3,0.8
	c-0.5,0.1-1,0.1-1.5,0.2c-0.4-0.1-0.7-0.2-1.1-0.3c0.3,0.3,0.6,0.7,0.9,1c2.3,1.6,4.6,3.3,6.9,4.9c-1.3,0.4-2.3,0.2-3.4,0
	c-6.3-1.4-6.8-1-5.6,4.8c-0.8,0.2-1.5,0.4-2.3,0.7c-0.2-0.4-0.5-0.7-0.7-1.1c-0.2,0.4-0.5,0.7-0.7,1.1
	C167.3,215.5,165,213.8,162.7,212z M169.2,206.5c-0.2,0.4-0.4,0.6-0.4,0.7c0.1,0.2,0.3,0.3,0.5,0.4
	C169.3,207.3,169.3,207,169.2,206.5z M172.8,209.6c0-0.2-0.1-0.3-0.1-0.5c-0.4,0.1-0.8,0.2-1.2,0.2c0,0.1,0.1,0.3,0.1,0.4
	C172,209.7,172.4,209.7,172.8,209.6z"/>
<path stroke="#000000" stroke-miterlimit="10" d="M156.9,95.8c0.4,0.5,0.9,1.1,1.3,1.6C157.8,96.9,157.3,96.3,156.9,95.8z"/>
<path stroke="#000000" stroke-miterlimit="10" d="M150.8,74.8c0.2,0.5,0.4,1,0.6,1.4C151.2,75.8,151,75.3,150.8,74.8z"/>
<path stroke="#000000" stroke-miterlimit="10" d="M238.8,55.3c0.9,1.2,1.9,2.5,2.8,3.7c1.5,1.3,3,2.5,4.5,3.8c0,0,0,0,0,0
	c1.2,1.1,2.4,2.1,3.6,3.2c0,0,0,0,0,0c0.3,1.5,0.7,2.9,1,4.4c-0.1,0.8-0.4,1.7-0.3,2.5c0.2,1.7,0.6,3.3,0.9,5c0,0,0,0,0,0
	c-0.2,0.3-0.5,0.7-0.7,1c0,0.4,0.1,0.8-0.1,1.1c-2.8,4-5.2,8.4-9.1,11.4c-2.2,1.8-5.6,2.4-6,6c0,0.1-0.9,0.1-1.3,0.2
	c-2.2,0.8-4.4,1.7-7.4,3c0,0-1.2-0.4-2.3-0.2c-2.4,0.2-4.7,0.7-7.1,1.1c-1.5,0.3-2.9,0.8-4.3,1.2c0,0.4,0.1,0.8,0.1,1.2
	c-0.8-0.5-1.6-1-2.4-1.5c-2-0.8-4-1.6-6-2.3c-0.4-0.2-1.1-0.4-1.3-0.2c-2.5,2.3-3.2-0.2-4.1-1.6c-1.9-3.2-3.6-6.5-5.3-9.8
	c0-0.2-0.1-0.5-0.1-0.7c0-0.5-0.1-1.1-0.1-1.6c-0.1-0.2-0.2-0.3-0.3-0.5c-0.5-0.1-0.9-0.3-1.4-0.4l0-0.1c-0.8-1.5-1.7-3.1-2.5-4.6
	c0.2-0.2,0.5-0.4,0.7-0.6c-1.1-0.4-2.2-0.8-3.4-1.3c-2.6-4.2-5.2-8.5-7.8-12.7c2.4-1.1,4.7-2.3,7.4-3.5c0.8-2.6,1.7-5.6,2.6-8.6
	c1.8-1.3,5.8-0.1,5.1-4.3c0.1-0.9,0.3-1.8,0.5-3c1.6,0.5,3,1,4.3,1.5c0.9,4.3,3.7,6,7.9,5.9c4.2-0.1,8.8,1.3,11.5-3.6
	c0.4-0.7,2-0.7,3.1-0.8c2.8-0.2,5.7-0.7,8.3-0.2c2.5,0.5,4.8,2.2,7.1,3.6C237.7,53.2,238.1,54.4,238.8,55.3z"/>
<path stroke="#000000" stroke-miterlimit="10" d="M184.6,107.9c-0.3,0.2-0.5,0.5-0.8,0.7C184,108.4,184.3,108.1,184.6,107.9z"/>
<path stroke="#000000" stroke-miterlimit="10" d="M250.4,127.4c-0.1-1.9,1.3-3.2,3.5-2.9c1.4,0.2,2.7,0.9,4.1,1.3
	C255.5,126.4,253,126.9,250.4,127.4z"/>
<path stroke="#000000" stroke-miterlimit="10" d="M249.1,134.8c0.4-2,0.9-4.1,1.3-6.1C250,130.8,249.6,132.8,249.1,134.8z"/>
<path stroke="#000000" stroke-miterlimit="10" d="M256.5,233.9c-0.7,0-1.5,0-2.2,0c0,0,0,0,0,0c0.3-0.5,0.6-0.9,1-1.4
	C255.6,232.9,256.1,233.4,256.5,233.9C256.5,233.8,256.5,233.9,256.5,233.9z"/>
<path stroke="#000000" stroke-miterlimit="10" d="M254.3,233.9c-0.2,0.4-0.5,0.8-0.7,1.1c-0.1-0.1-0.3-0.3-0.4-0.4
	C253.5,234.3,253.9,234.1,254.3,233.9C254.2,233.9,254.3,233.9,254.3,233.9z"/>
<path stroke="#000000" stroke-miterlimit="10" d="M257.3,234.6c-0.3-0.3-0.5-0.5-0.8-0.8c0,0,0,0,0,0
	C256.8,234.1,257,234.4,257.3,234.6C257.3,234.6,257.3,234.6,257.3,234.6z"/>
<path stroke="#000000" stroke-miterlimit="10" d="M336.9,106.7c0.2-0.2,0.4-0.3,0.6-0.2C337.3,106.5,337.1,106.6,336.9,106.7z"/>
<path stroke="#000000" stroke-miterlimit="10" d="M623.3,131.6c0.2,0.3,0.4,0.7,0.7,1C623.8,132.3,623.6,132,623.3,131.6z"/>
<path stroke="#000000" stroke-miterlimit="10" d="M470.5,52c0.2,0.2,0.5,0.5,0.7,0.7c-0.4-0.1-0.7-0.1-1.1-0.2
	C470.3,52.3,470.4,52.2,470.5,52z"/>
<path stroke="#000000" stroke-miterlimit="10" d="M468.8,96.6c-0.3-0.3-0.5-0.6-0.8-0.9C468.3,96,468.5,96.3,468.8,96.6z"/>
<path stroke="#000000" stroke-miterlimit="10" d="M344.6,93c-0.1-0.3-0.3-0.6-0.4-0.9C344.3,92.5,344.5,92.7,344.6,93z"/>
<path stroke="#000000" stroke-miterlimit="10" d="M381.8,83.2c0,0.2,0,0.5,0.1,0.7c-0.5,0.5-1.1,1-1.6,1.4c0,0,0,0,0,0
	C380.8,84.6,381.3,83.9,381.8,83.2z"/>
<path stroke="#000000" stroke-miterlimit="10" d="M458.2,88.4c0.1-0.1,0.1-0.2,0.2-0.3C458.4,88.2,458.3,88.3,458.2,88.4
	C458.2,88.4,458.2,88.4,458.2,88.4z"/>
<path stroke="#000000" stroke-miterlimit="10" d="M336,202c0.2-0.6,0.5-1.3,0.7-1.9C336.5,200.7,336.2,201.4,336,202z"/>
<path stroke="#000000" stroke-miterlimit="10" d="M368.2,269.9c-0.1-0.1-0.2-0.1-0.3-0.2C368.1,269.7,368.2,269.8,368.2,269.9
	C368.3,269.8,368.2,269.9,368.2,269.9z"/>
<path stroke="#000000" stroke-miterlimit="10" d="M332.9,186.5c0.3-0.7,0.4-1,0.6-1.4c0.1,0.3,0.3,0.6,0.4,0.9
	C333.9,186,333.5,186.2,332.9,186.5z"/>
<path stroke="#000000" stroke-miterlimit="10" d="M534.7,164.5c0.7,0.1,1.5,0.2,2.2,0.3c1.2,3.3-2,1.7-2.9,2.7
	C534.2,166.5,534.5,165.5,534.7,164.5z"/>
<path stroke="#000000" stroke-miterlimit="10" d="M550.5,245.9c0,0.5,0,1,0,1.5c-0.4-0.2-0.8-0.4-1.1-0.6
	C549.7,246.5,550.1,246.2,550.5,245.9z"/>
<path stroke="#000000" stroke-miterlimit="10" d="M551.5,244.4c-0.3,0.3-0.6,0.6-0.9,0.9C550.9,245,551.2,244.7,551.5,244.4z"/>
<path stroke="#000000" stroke-miterlimit="10" d="M555.1,213.5c-0.1,0.1-0.2,0.2-0.3,0.3C554.9,213.7,555,213.6,555.1,213.5
	C555.1,213.5,555.1,213.5,555.1,213.5z"/>
<path stroke="#000000" stroke-miterlimit="10" d="M175.5,206.1c-0.1,0.2-0.1,0.5-0.2,0.7c-0.3-0.3-0.6-0.7-0.9-1
	C174.8,205.9,175.1,206,175.5,206.1z"/>
<path stroke="#000000" stroke-miterlimit="10" d="M171,217.3c-0.5,0-1,0-1.5,0c0.2-0.4,0.5-0.7,0.7-1.1
	C170.5,216.5,170.7,216.9,171,217.3z"/>
<path stroke="#000000" stroke-miterlimit="10" d="M169.2,206.5c0.1,0.5,0.1,0.8,0.1,1.1c-0.2-0.1-0.5-0.2-0.5-0.4
	C168.8,207.1,169,206.9,169.2,206.5z"/>
<path stroke="#000000" stroke-miterlimit="10" d="M172.8,209.6c-0.4,0.1-0.8,0.1-1.2,0.2c0-0.1-0.1-0.3-0.1-0.4
	c0.4-0.1,0.8-0.2,1.2-0.2C172.8,209.3,172.8,209.4,172.8,209.6z"/>
<path stroke="#000000" stroke-miterlimit="10" d="M177.7,205.9c-0.2,0-0.5,0-0.7,0c0.1-0.3,0.2-0.6,0.3-0.8
	C177.5,205.4,177.6,205.6,177.7,205.9z"/>
<path stroke="#000000" stroke-miterlimit="10" d="M215.2,154.3c-0.1,0.1-0.1,0.2-0.2,0.3C215.1,154.6,215.2,154.5,215.2,154.3
	C215.3,154.4,215.2,154.3,215.2,154.3z"/>
<path stroke="#000000" stroke-miterlimit="10" d="M156.7,219.6c0,0.3,0,0.5,0,0.8C156.7,220.2,156.7,219.9,156.7,219.6z"/>
<path stroke="#000000" stroke-miterlimit="10" d="M189.7,220.2c-1.2,0.3-2.5,0.5-3.7,0.8c-2-0.5-4.1-1-6.1-1.5c0-0.5,0-0.9,0-1.4
	c0.2-0.3,0.4-0.5,0.6-0.8c0.1-0.2,0.2-0.5,0.3-0.7c3,0.7,6,1.5,9,2.2C189.8,219.3,189.7,219.7,189.7,220.2z"/>
<path stroke="#000000" stroke-miterlimit="10" d="M173.3,219.6c0.1-0.4,0.1-0.8,0.2-1.2c1.1,0.7,2.1,1.4,3.7,2.4
	c-1.2,0.2-1.8,0.3-2.3,0.3C174.4,220.6,173.8,220.1,173.3,219.6z"/>
<path stroke="#000000" stroke-miterlimit="10" d="M173.3,219.6c0.5,0.5,1.1,1,1.6,1.5C174.4,220.6,173.8,220.1,173.3,219.6z"/>
<path stroke="#000000" stroke-miterlimit="10" d="M251.2,77.8c-0.2,0.3-0.5,0.7-0.7,1C250.8,78.5,251,78.2,251.2,77.8z"/>
<path stroke="#000000" stroke-miterlimit="10" d="M194,88.4c-0.1-0.2-0.2-0.3-0.2-0.5c0-0.1,0.1-0.2,0.1-0.3
	C193.9,87.9,193.9,88.1,194,88.4z"/>
<path stroke="#000000" stroke-miterlimit="10" d="M193.7,86.1c-0.1-0.1-0.2-0.3-0.3-0.5C193.5,85.7,193.6,85.9,193.7,86.1z"/>
<path stroke="#000000" stroke-miterlimit="10" d="M274.5,123.6c0.1,0,0.2,0.1,0.3,0.1C274.7,123.7,274.6,123.7,274.5,123.6
	C274.5,123.6,274.5,123.6,274.5,123.6z"/>
</svg>
